<?xml version="1.0" encoding="utf-8"?>
<!-- Generator: Adobe Illustrator 19.0.1, SVG Export Plug-In . SVG Version: 6.00 Build 0)  -->
<svg version="1.1" id="レイヤー_1" xmlns="http://www.w3.org/2000/svg" xmlns:xlink="http://www.w3.org/1999/xlink" x="0px"
	 y="0px" viewBox="0 0 612.8 351.3" enable-background="new 0 0 612.8 351.3" xml:space="preserve">
<g>
	<polygon fill="#FFFFFF" points="67.6,108.4 171.3,108.1 170.9,241.9 67.3,242.2 	"/>
	<path fill="#FFFFFF" d="M198.4,211.7h-10.7v-70.4h10.7V211.7z"/>
	<path fill="#FFFFFF" d="M226.9,152.6h0.3c3.5-6.8,11.6-13,22.6-13c8.8,0,23.8,5.3,23.8,29.2v42.9h-10.7V170
		c0-11.5-4.1-21.6-16.4-21.6c-9.2,0-18.5,7.8-18.5,20v18.3v24.9h-10.7v-70.4h9.6"/>
	<path fill="#FFFFFF" d="M343,211.7h-13.2l-24.3-34.8l-6.5,7.4v27.4h-10.7V108.3h10.7v65.8h0.3c1.7-2.5,4.1-5.6,6.1-7.9l21.1-24.9
		h12.9l-26.5,29.1L343,211.7z"/>
	<path fill="#FFFFFF" d="M392.4,202.7H392c-3.6,5.6-10.9,9-20.9,9c-13.4,0-20.5-8.2-20.5-18.4c0-16.9,14.7-26.1,40.8-26
		c0-5.9,0-19.4-16-19.4c-6.1,0-12.4,1.7-17.2,5l-2.6-7.4c5.7-3.7,13.6-5.9,21.5-5.9c19.9,0,25.1,14.1,25.1,28v44h-9.7 M391.6,175.1
		c-13.3,0-30,1.9-30,16.8c0,9,5.8,12.3,12.2,12.3c10.5,0,17.8-7.3,17.8-15.8V175.1z"/>
	<path fill="#FFFFFF" d="M467.5,139.6h9.4l0.4,62c0,12.3-0.3,40.4-33.6,40.4c-8,0-16.8-1.9-22.1-5.6l2.8-8.4
		c4.5,2.7,11.4,5.3,19.8,5.3c12.9,0,22.4-6.9,22.4-25.5v-8.4h-0.3c-3.6,6.6-11.1,12-21.8,12c-16.8,0-28.8-14.9-28.8-34.6
		c0-24.4,14-37.3,29.2-37.3c12,0,19.6,6.4,22.6,12.1h0.3 M466.3,168.2c0-12.3-8.9-20-18.7-20c-12.4,0-21.1,11-21.1,28
		c0,15,7.2,26.8,20.9,26.8c8,0,18.9-6.1,18.9-20.7V168.2z"/>
	<path fill="#FFFFFF" d="M543.6,208.8c-4,1.9-11.4,4.4-22.1,4.4c-20.5,0-32.8-14.5-32.8-35.5c0-22.1,12.4-38,31.4-38
		c21.7,0,27.3,19.9,27.3,32.2c0,2.5-0.1,4.3-0.3,5.9h-47.9c0.1,19.5,11.2,26.9,23.9,26.9c8.8,0,10.8-0.6,15.2-2.4L543.6,208.8z
		 M536.8,169.8c0.1-9.6-3.9-22-17.7-22c-12.9,0-18.6,12.3-19.6,22H536.8z"/>
	<path fill="#674598" d="M173.8,220.8h-54.3V108.1h10.7v103.5h43.6V220.8z"/>
	<path fill="#F9D909" d="M192.9,108.3c0.1,7.6-6,13.8-13.6,13.8"/>
	<path fill="#F9D909" d="M206.8,121.8c-7.6,0.1-13.8-6-13.8-13.6"/>
	<path fill="#F9D909" d="M193.2,135.7c-0.1-7.6,6-13.8,13.6-13.8"/>
	<path fill="#F9D909" d="M179.4,122.1c7.6-0.1,13.8,6,13.8,13.6"/>
</g>
</svg>
