<?xml version="1.0" encoding="utf-8"?>
<!-- Generator: Adobe Illustrator 19.1.0, SVG Export Plug-In . SVG Version: 6.00 Build 0)  -->
<svg version="1.1"
	 id="svg2" xmlns:svg="http://www.w3.org/2000/svg" xmlns:cc="http://creativecommons.org/ns#" xmlns:rdf="http://www.w3.org/1999/02/22-rdf-syntax-ns#" xmlns:inkscape="http://www.inkscape.org/namespaces/inkscape" xmlns:sodipodi="http://sodipodi.sourceforge.net/DTD/sodipodi-0.dtd" xmlns:dc="http://purl.org/dc/elements/1.1/" inkscape:version="0.48.4 r9939" sodipodi:docname="antares_rocket.svg"
	 xmlns="http://www.w3.org/2000/svg" xmlns:xlink="http://www.w3.org/1999/xlink" x="0px" y="0px"
	 viewBox="-621.7 -323.2 2720.7 758.6" style="enable-background:new -621.7 -323.2 2720.7 758.6;" xml:space="preserve">
<style type="text/css">
	.st0{opacity:0.66;filter:url(#filter3905);enable-background:new    ;}
	.st1{fill:url(#SVGID_1_);}
	.st2{filter:url(#filter4036);}
	.st3{fill:url(#SVGID_2_);}
	.st4{opacity:0.66;fill:#FFFFFF;stroke:#FFFFFF;stroke-width:1.2442;stroke-linejoin:round;enable-background:new    ;}
	.st5{opacity:0.88;filter:url(#filter3899);enable-background:new    ;}
	.st6{fill:#FFFFFF;}
	.st7{fill:none;stroke:#FFFFFF;stroke-width:1.2442;stroke-linejoin:round;}
	.st8{opacity:0.88;fill:none;stroke:#FFFF00;stroke-width:1.2442;stroke-linejoin:round;enable-background:new    ;}
	.st9{fill:#4D4D4D;stroke:#000000;stroke-linejoin:round;}
	.st10{fill:#B3B3B3;stroke:#000000;stroke-width:2;stroke-linejoin:round;}
	.st11{fill:#FF9955;}
	.st12{fill:url(#path3796_1_);stroke:#000000;stroke-width:1.2442;stroke-linejoin:round;}
	.st13{fill:url(#path3798_1_);stroke:#000000;stroke-width:1.2442;stroke-linejoin:round;}
	.st14{fill:url(#path4067_1_);stroke:#000000;stroke-width:1.2442;stroke-linejoin:round;}
	.st15{fill:#808080;stroke:#000000;stroke-width:1.2442;stroke-linejoin:round;}
	.st16{filter:url(#filter3863);}
	.st17{fill:#FFF5C9;}
	.st18{fill:url(#path4073_1_);stroke:#000000;stroke-width:1.2442;stroke-linejoin:round;}
	.st19{font-family:'Tahoma';}
	.st20{font-size:5.5284px;}
	.st21{opacity:0.55;fill:#808080;enable-background:new    ;}
	.st22{fill:#F2F2F2;}
	.st23{fill:none;stroke:#000000;stroke-width:0.5542;}
	.st24{fill:url(#path4151_1_);stroke:#000000;stroke-width:1.2442;stroke-linejoin:round;}
	.st25{fill:#CCCCCC;stroke:#000000;}
	.st26{clip-path:url(#SVGID_4_);}
	.st27{fill:#FFFFFF;stroke:#B3B3B3;stroke-width:1.2442;}
	.st28{fill:#D40000;}
	.st29{fill:#002868;}
	.st30{opacity:0.88;fill:#AA0000;enable-background:new    ;}
	.st31{opacity:0.66;fill:url(#path3922_1_);enable-background:new    ;}
	.st32{opacity:0.55;fill:url(#path3786_1_);stroke:#000000;stroke-width:1.2442;stroke-linejoin:round;enable-background:new    ;}
	.st33{opacity:0.55;}
	.st34{opacity:0.55;fill:#1A1A1A;stroke:#000000;stroke-width:1.2442;stroke-linejoin:round;enable-background:new    ;}
	.st35{opacity:0.55;fill:#333333;stroke:#000000;stroke-width:1.2442;stroke-linejoin:round;enable-background:new    ;}
	.st36{opacity:0.55;fill:url(#path4088_1_);stroke:#000000;stroke-width:2.3106;stroke-linejoin:round;enable-background:new    ;}
	.st37{opacity:0.55;fill:url(#path4090_1_);stroke:#000000;stroke-width:2.3106;stroke-linejoin:round;enable-background:new    ;}
	.st38{opacity:0.55;fill:url(#rect4075_1_);stroke:#000000;stroke-width:1.2442;stroke-linejoin:round;enable-background:new    ;}
	.st39{opacity:0.55;fill:url(#path4078_1_);stroke:#000000;stroke-width:1.2442;stroke-linejoin:round;enable-background:new    ;}
	.st40{fill:url(#path4247_1_);stroke:#000000;stroke-width:1.2442;stroke-linejoin:round;}
	.st41{opacity:0.55;fill:#999999;enable-background:new    ;}
	.st42{fill:#CCCCCC;}
	.st43{fill:#999999;stroke:#808080;stroke-width:2;stroke-linecap:round;}
	.st44{fill:#CCCCCC;stroke:#FFFFFF;stroke-width:0.4;stroke-linecap:round;}
</style>
<filter  width="1.250046" height="1.0482921" x="-0.125023" y="-0.024146073" id="filter4036" inkscape:collect="always">
	<feGaussianBlur  stdDeviation="4.6883625" id="feGaussianBlur4038" inkscape:collect="always"></feGaussianBlur>
</filter>
<filter  id="filter3905" inkscape:collect="always" color-interpolation-filters="sRGB">
	<feGaussianBlur  stdDeviation="5.9396967" id="feGaussianBlur3907" inkscape:collect="always"></feGaussianBlur>
</filter>
<filter  id="filter3899" inkscape:collect="always" color-interpolation-filters="sRGB">
	<feGaussianBlur  stdDeviation="7.9403214" id="feGaussianBlur3901" inkscape:collect="always"></feGaussianBlur>
</filter>
<filter  id="filter3863" inkscape:collect="always" color-interpolation-filters="sRGB">
	<feGaussianBlur  stdDeviation="3.4534399" id="feGaussianBlur3865" inkscape:collect="always"></feGaussianBlur>
</filter>
<defs>
	
	
		<inkscape:path-effect  yy="true" bendpath3="m -294.05086,378.28086 c 3.80187,-9.97002 66.26864,-15.40628 84.6875,-1.44226" effect="envelope" xx="true" is_visible="true" bendpath2="m -210.77757,341.73473 1.41421,37.10387" bendpath1="m -290.05086,341.08479 c 21.86521,-11.1783 49.87254,-11.48162 76.6875,-1.30602" bendpath4="m -291.92954,339.11679 -2.12132,39.16407" id="path-effect4870" bendpath2-nodetypes="cc" bendpath4-nodetypes="cc" bendpath1-nodetypes="cc" bendpath3-nodetypes="cc">
		</inkscape:path-effect>
	
		<inkscape:path-effect  bendpath="m -293.34375,336.3665 84.6875,0" vertical="false" prop_scale="1" scale_y_rel="false" effect="bend_path" is_visible="true" id="path-effect4868">
		</inkscape:path-effect>
</defs>
<sodipodi:namedview  inkscape:cy="1055.9025" showgrid="false" inkscape:zoom="0.25" pagecolor="#ffffff" bordercolor="#666666" borderopacity="1.0" fit-margin-top="10" inkscape:cx="494.82759" fit-margin-left="0" id="base" inkscape:pageopacity="0.0" inkscape:pageshadow="2" inkscape:document-units="px" inkscape:current-layer="layer1" inkscape:snap-bbox="true" inkscape:object-nodes="true" inkscape:snap-smooth-nodes="true" inkscape:snap-global="false" inkscape:window-width="1280" inkscape:window-height="963" inkscape:window-x="-9" inkscape:window-y="-9" inkscape:window-maximized="1" fit-margin-right="0" fit-margin-bottom="10">
	
		<inkscape:grid  type="xygrid" originy="903.9998px" originx="706.11076px" enabled="true" visible="true" empspacing="5" id="grid4000" snapvisiblegridlinesonly="true">
		</inkscape:grid>
</sodipodi:namedview>
<g id="layer1" transform="translate(706.11076,48.625)" inkscape:label="Layer 1" inkscape:groupmode="layer">
	<g id="g3917">
		
			<g id="path3113" sodipodi:ry="296.98483" sodipodi:rx="296.98483" sodipodi:cy="1081.4681" sodipodi:cx="56.568542" sodipodi:type="arc" class="st0">
			
				<radialGradient id="SVGID_1_" cx="639.8875" cy="661.6644" r="114.041" gradientTransform="matrix(0.7215 0.6054 0.6006 -0.7158 334.6408 141.6288)" gradientUnits="userSpaceOnUse">
				<stop  offset="0" style="stop-color:#FFFF00"/>
				<stop  offset="1" style="stop-color:#FFFF00;stop-opacity:0"/>
			</radialGradient>
			<circle class="st1" cx="1197.5" cy="54.3" r="113.8"/>
		</g>
		<g>
			
				<g id="path4347" sodipodi:ry="233" sodipodi:rx="45" sodipodi:cy="1199.3622" sodipodi:cx="-75" sodipodi:type="arc" class="st2">
				
					<linearGradient id="SVGID_2_" gradientUnits="userSpaceOnUse" x1="-351.9976" y1="-641.9031" x2="-353.8617" y2="-909.9829" gradientTransform="matrix(0.766 0.6428 2.3477 -2.7979 1989.212 -1613.0372)">
					<stop  offset="0" style="stop-color:#FFF455"/>
					<stop  offset="1" style="stop-color:#FF9955;stop-opacity:0"/>
				</linearGradient>
				<path class="st3" d="M751.5,162.7c-473.4,53.7-1796,27.1-1803.3,21c-7.3-6.1,1548.1-33,1610.2-34.7
					c362.1-10.3,659.2-81.5,641.2-92.4C1191.5,51.5,1237.8,107.5,751.5,162.7z"/>
			</g>
		</g>
		<g id="use3927" transform="translate(-953.5,-332.63782)">
		</g>
		<g id="use3929" transform="translate(-953.5,-332.63782)">
		</g>
		<g id="use3931" transform="translate(-953.5,-332.63782)">
		</g>
		<g id="use3933" transform="translate(-953.5,-332.63782)">
		</g>
		<g id="use3935" transform="translate(-953.5,-332.63782)">
		</g>
		<g id="use3937" transform="translate(-953.5,-332.63782)">
		</g>
		<g id="use3939" transform="translate(-953.5,-332.63782)">
		</g>
		<g id="use3943" transform="matrix(650,0,0,650,-706.5,-157.63782)">
		</g>
		<g id="g4313">
		</g>
		<g>
			
				<path id="path3123" sodipodi:r1="458.42337" sodipodi:r2="13.752702" sodipodi:arg1="1.5707963" sodipodi:sides="4" sodipodi:arg2="2.3561945" sodipodi:cy="453.55734" sodipodi:cx="-661.85193" sodipodi:type="star" inkscape:flatsided="false" inkscape:randomized="0" inkscape:rounded="0.01" class="st4" d="
				M1138.3,126.5c-0.7-0.6,58.4-71.7,58.3-72.6s-70.6-60.7-70-61.4s71.7,58.4,72.6,58.3c0.9-0.1,60.7-70.6,61.4-70
				c0.7,0.6-58.4,71.7-58.3,72.6c0.1,0.9,70.6,60.7,70,61.4c-0.6,0.7-71.7-58.4-72.6-58.3C1198.7,56.5,1139,127.1,1138.3,126.5z"/>
			
				<g id="path3125" sodipodi:r1="458.42337" sodipodi:r2="13.752702" sodipodi:arg1="1.5707963" sodipodi:sides="4" sodipodi:arg2="2.3561945" sodipodi:cy="453.55734" sodipodi:cx="-661.85193" sodipodi:type="star" inkscape:flatsided="false" inkscape:randomized="0" inkscape:rounded="0.01" class="st5">
				<path class="st6" d="M1134.8,77.1c-0.2-0.6,62.4-23.8,62.7-24.4s-22.3-63.5-21.6-63.7c0.6-0.2,23.8,62.4,24.4,62.7
					c0.6,0.3,63.5-22.3,63.7-21.6c0.2,0.6-62.4,23.8-62.7,24.4c-0.3,0.6,22.3,63.5,21.6,63.7s-23.8-62.4-24.4-62.7
					C1197.9,55.2,1135,77.8,1134.8,77.1z"/>
				<path class="st7" d="M1134.8,77.1c-0.2-0.6,62.4-23.8,62.7-24.4s-22.3-63.5-21.6-63.7c0.6-0.2,23.8,62.4,24.4,62.7
					c0.6,0.3,63.5-22.3,63.7-21.6c0.2,0.6-62.4,23.8-62.7,24.4c-0.3,0.6,22.3,63.5,21.6,63.7s-23.8-62.4-24.4-62.7
					C1197.9,55.2,1135,77.8,1134.8,77.1z"/>
			</g>
			
				<path id="path3903" sodipodi:ry="296.98483" sodipodi:rx="296.98483" sodipodi:cy="1081.4681" sodipodi:cx="56.568542" sodipodi:type="arc" class="st8" d="
				M1244.3,95.9c-21.9,26.1-60.7,29.5-86.8,7.6c-26.1-21.9-29.5-60.7-7.6-86.8c21.9-26.1,60.7-29.5,86.8-7.6
				C1262.8,31,1266.2,69.9,1244.3,95.9z"/>
		</g>
		<g>
			<path id="path4245" inkscape:connector-curvature="0" class="st9" d="M1209.2,47.7c-1.8-3.1-3.1-6-3.8-8.1l0.6-0.3l0.3-0.2
				l0.6-0.3c0.7,2.1,2,4.9,3.8,8c1.8,3.1,3.6,5.7,5,7.3l-0.6,0.3l-0.3,0.2l-0.6,0.3C1212.7,53.3,1210.9,50.7,1209.2,47.7z"/>
			<path id="path4217" inkscape:connector-curvature="0" class="st10" d="M1364.1-41.8c-0.7-1.2-1.7-1.5-2.5-1.5l-7.3-0.1l-8.6,2.1
				c1.9,1.3,4.1,3.7,5.8,6.8c1.8,3.1,2.8,6.1,2.9,8.4l6.2-6.4l3.6-6.3C1364.5-39.5,1364.7-40.6,1364.1-41.8z M1354.3-26.1
				c-0.2-2.3-1.2-5.3-2.9-8.3c-1.8-3.1-4-5.5-5.9-6.8l-23.5,13.6c1.9,1.3,4.1,3.7,5.8,6.8s2.8,6.1,2.9,8.4L1354.3-26.1z
				 M1330.7-12.4c-0.2-2.3-1.2-5.3-2.9-8.3c-1.8-3.1-4-5.5-5.9-6.8l-7.6,4.4c1.9,1.3,4.1,3.7,5.8,6.8c1.8,3.1,2.8,6.1,2.9,8.4
				L1330.7-12.4z M1323-8c-0.2-2.3-1.2-5.3-2.9-8.3c-1.8-3.1-4-5.5-5.9-6.8l-1.9,1.1c1.9,1.3,4.1,3.7,5.8,6.8
				c1.8,3.1,2.8,6.1,2.9,8.4L1323-8z M1318-15.1c-1.8-3.1-3.9-5.5-5.9-6.8l-0.5,0.3c1.9,1.3,4.1,3.7,5.8,6.7
				c1.3,2.3,2.2,4.6,2.7,6.6c-0.4-2-1.3-4.2-2.6-6.5c-1.8-3.1-4-5.5-5.9-6.8l-104.7,60.4c0,0,0,0,0,0l-0.6,0.3l-0.3,0.2l-0.6,0.3
				c0.7,2.1,2,5,3.8,8.1c1.7,3,3.5,5.6,5,7.2l0.6-0.3l0.3-0.2l0.6-0.3c0,0,0,0,0,0l104.8-60.5c0,0,0,0,0-0.1l0.6-0.3
				C1320.8-9.1,1319.8-12.1,1318-15.1L1318-15.1z M1211.7,46.2c1.2,2.2,2.1,4.3,2.6,6.2c-1.2-1.5-2.4-3.4-3.7-5.6
				c-1.2-2.2-2.3-4.2-3-6C1209,42.2,1210.4,44,1211.7,46.2z"/>
			
				<path id="path4345" sodipodi:ry="12" sodipodi:rx="53" sodipodi:cy="1070.3622" sodipodi:cx="-247" sodipodi:type="arc" class="st11" d="
				M1214,54.9c-0.4,0.3-2.7-2.8-5-6.8c-2.3-4-3.8-7.4-3.4-7.7c0.4-0.3,2.7,2.8,5,6.8C1212.9,51.2,1214.4,54.6,1214,54.9z"/>
			
				<linearGradient id="path3796_1_" gradientUnits="userSpaceOnUse" x1="330.1334" y1="735.3593" x2="339.6539" y2="735.3593" gradientTransform="matrix(0.5 0.866 0.866 -0.5 536.0151 52.9498)">
				<stop  offset="0" style="stop-color:#FFFFFF"/>
				<stop  offset="1" style="stop-color:#D0D0D0"/>
			</linearGradient>
			<path id="path3796" sodipodi:nodetypes="sccsccs" inkscape:connector-curvature="0" class="st12" d="M1351.4-34.4
				c-1.8-3.1-4-5.5-5.9-6.8l-23.5,13.6c1.9,1.3,4.1,3.7,5.8,6.8s2.8,6.1,2.9,8.4l23.6-13.6C1354.1-28.4,1353.1-31.4,1351.4-34.4z"/>
			
				<linearGradient id="path3798_1_" gradientUnits="userSpaceOnUse" x1="330.1334" y1="756.3268" x2="339.6539" y2="756.3268" gradientTransform="matrix(0.5 0.866 0.866 -0.5 536.0151 52.9498)">
				<stop  offset="0" style="stop-color:#FFFFFF"/>
				<stop  offset="1" style="stop-color:#D0D0D0"/>
			</linearGradient>
			<path id="path3798" sodipodi:nodetypes="sssccsccs" inkscape:connector-curvature="0" class="st13" d="M1364.1-38.8
				c0.4-0.7,0.6-1.8,0-3c-0.7-1.2-1.7-1.5-2.5-1.5l-7.3-0.1l-8.6,2.1c1.9,1.3,4.1,3.7,5.8,6.8c1.8,3.1,2.8,6.1,2.9,8.4l6.2-6.4
				L1364.1-38.8z"/>
			
				<linearGradient id="path4067_1_" gradientUnits="userSpaceOnUse" x1="330.1334" y1="711.644" x2="339.6539" y2="711.644" gradientTransform="matrix(0.5 0.866 0.866 -0.5 536.0151 52.9498)">
				<stop  offset="0" style="stop-color:#FFFFFF"/>
				<stop  offset="1" style="stop-color:#D0D0D0"/>
			</linearGradient>
			<path id="path4067" sodipodi:nodetypes="sccsccs" inkscape:connector-curvature="0" class="st14" d="M1320.1-16.3
				c-1.8-3.1-4-5.5-5.9-6.8l-1.9,1.1c1.9,1.3,4.1,3.7,5.8,6.8c1.8,3.1,2.8,6.1,2.9,8.4l2-1.2C1322.8-10.3,1321.8-13.3,1320.1-16.3z"
				/>
			<path id="path4069" sodipodi:nodetypes="sccsccs" inkscape:connector-curvature="0" class="st15" d="M1318-15.1
				c-1.8-3.1-4-5.5-5.9-6.8l-0.5,0.3c1.9,1.3,4.1,3.7,5.8,6.8c1.8,3.1,2.8,6.1,2.9,8.4l0.6-0.4C1320.8-9.1,1319.8-12.1,1318-15.1z"
				/>
			
				<g id="path3091" sodipodi:ry="233" sodipodi:rx="45" sodipodi:cy="1199.3622" sodipodi:cx="-75" sodipodi:type="arc" class="st16">
				<path class="st17" d="M1205.5,55.4c-48.2,27.8-54.3,32.8-55.6,30.6s2.9-10.7,51-38.5c48.2-27.8,88.2-48.6,89.5-46.4
					S1253.7,27.6,1205.5,55.4z"/>
			</g>
			
				<g id="path3867" sodipodi:ry="233" sodipodi:rx="45" sodipodi:cy="1199.3622" sodipodi:cx="-75" sodipodi:type="arc" class="st16">
				<ellipse transform="matrix(0.5 0.866 -0.866 0.5 646.1351 -1016.3328)" class="st6" cx="1203.2" cy="51.4" rx="1.8" ry="53.1"/>
			</g>
			
				<linearGradient id="path4073_1_" gradientUnits="userSpaceOnUse" x1="330.1334" y1="648.721" x2="339.6539" y2="648.721" gradientTransform="matrix(0.5 0.866 0.866 -0.5 536.0151 52.9498)">
				<stop  offset="0" style="stop-color:#FFFFFF"/>
				<stop  offset="1" style="stop-color:#D0D0D0"/>
			</linearGradient>
			<path id="path4073" sodipodi:nodetypes="sccsccs" inkscape:connector-curvature="0" class="st18" d="M1317.4-14.8
				c-1.8-3.1-4-5.5-5.9-6.8l-105.7,61c1.9,1.3,4.1,3.7,5.8,6.8c1.8,3.1,2.8,6.1,2.9,8.4l105.7-61
				C1320.2-8.8,1319.2-11.8,1317.4-14.8z"/>
			<text transform="matrix(0.5 0.866 -0.866 0.5 1297.5487 -5.3375)" class="st19 st20">A</text>
			<text transform="matrix(0.5 0.866 -0.866 0.5 1291.2797 -1.9331)" class="st19 st20">N</text>
			<text transform="matrix(0.5 0.866 -0.866 0.5 1285.219 1.8318)" class="st19 st20">T</text>
			<text transform="matrix(0.5 0.866 -0.866 0.5 1279.0205 5.3598)" class="st19 st20">A</text>
			<text transform="matrix(0.5 0.866 -0.866 0.5 1272.8154 8.8757)" class="st19 st20">R</text>
			<text transform="matrix(0.5 0.866 -0.866 0.5 1266.7222 12.5842)" class="st19 st20">E</text>
			<text transform="matrix(0.5 0.866 -0.866 0.5 1260.5515 16.1592)" class="st19 st20">S</text>
			<g id="g4231">
				<path id="rect4133" inkscape:connector-curvature="0" class="st21" d="M1259.8,20.7c0-0.1-0.1-0.1-0.2-0.1l-0.5,0.3l0.8,1.8
					l0.5-0.3c0.1,0,0.1-0.2,0.1-0.3L1259.8,20.7z M1258.9,21l-0.7,0.4c-0.1,0-0.1,0.2-0.1,0.3l0.6,1.5c0,0.1,0.1,0.1,0.2,0.1
					l0.8-0.4L1258.9,21z"/>
				<path id="rect4131" class="st22" d="M1259.9,20.7l0.6,1.5c0,0.1,0,0.1-0.1,0.2l-1.3,0.8c-0.1,0-0.1,0-0.2,0l-0.6-1.5
					c0-0.1,0-0.1,0.1-0.2l1.3-0.8C1259.8,20.6,1259.9,20.7,1259.9,20.7z"/>
				<g id="g4144" transform="matrix(1,0.12187925,0,1,22.75,30.192094)">
					<path id="path4135" inkscape:connector-curvature="0" class="st23" d="M1235.5-158.9c0.2,0.4,0.2,0.4,0.2,0.4"/>
					<path id="path4137" inkscape:connector-curvature="0" class="st23" d="M1235.8-158.2c0.2,0.4,0.2,0.4,0.2,0.4"/>
				</g>
			</g>
			
				<linearGradient id="path4151_1_" gradientUnits="userSpaceOnUse" x1="330.1334" y1="753.1022" x2="339.6539" y2="753.1022" gradientTransform="matrix(0.5 0.866 0.866 -0.5 536.0151 52.9498)">
				<stop  offset="0" style="stop-color:#FFFFFF"/>
				<stop  offset="1" style="stop-color:#D0D0D0"/>
			</linearGradient>
			<path id="path4151" inkscape:connector-curvature="0" class="st24" d="M1358.5-38.5c-1.1-1.9-2.4-3.6-3.7-4.8l-0.6,0l-8.5,2.1
				c1.9,1.3,4,3.7,5.8,6.7c1.7,3,2.7,6,2.9,8.4l6.2-6.4l0.3-0.5C1360.3-34.7,1359.6-36.6,1358.5-38.5L1358.5-38.5z"/>
			<path id="path4238" inkscape:connector-curvature="0" class="st25" d="M1211.8,46.2c-1.8-3.1-3.7-5.7-5.1-7.3l-0.6,0.3l-0.3,0.2
				l-0.6,0.3c1.4,1.6,3.3,4.2,5,7.3c1.8,3.1,3.1,5.9,3.8,8l0.6-0.3l0.3-0.2l0.6-0.3C1214.9,52,1213.6,49.2,1211.8,46.2z"/>
			<g>
				<defs>
					<polygon id="SVGID_3_" points="1346.4,-39.3 1353.1,-27.8 1345.5,-23.2 1338.7,-35.1 					"/>
				</defs>
				<clipPath id="SVGID_4_">
					<use xlink:href="#SVGID_3_"  style="overflow:visible;"/>
				</clipPath>
				<g id="g4649" transform="matrix(0.13783453,0,0,0.09117456,-303.01959,64.27163)" class="st26">
					<path id="path4617" inkscape:connector-curvature="0" class="st27" d="M11988.2-1071.5c-14.7-38.5-30.4-66.5-35-62.5l-1.7,1.4
						l-41.6,36.4l-0.5,0.5c-0.3,0.2-0.5,0.6-0.7,1.1c5.5-0.2,20.2,26.7,34.1,62.9c13.8,36.2,21.9,68.9,19,76c0.4,0,0.7-0.1,1-0.4
						l0.5-0.5l1.1-1l40.5-35.4l0.4-0.4l1.2-1.1C12011.2-998.5,12003-1033,11988.2-1071.5z"/>
					<path id="path4560" inkscape:connector-curvature="0" class="st28" d="M11988.2-1071.5c-14.7-38.5-30.4-66.5-35-62.5l-1.7,1.4
						c-0.3,0.2-0.5,0.6-0.7,1.1c5.5-0.2,20.2,26.7,34,62.9c13.8,36.2,21.9,68.9,19,76c0.4,0,0.7-0.1,1-0.4l1.7-1.4
						C12011.2-998.5,12003-1033,11988.2-1071.5z M11981.2-1065.4c-14.7-38.5-30.4-66.5-35-62.5l-1.7,1.4c-0.3,0.2-0.5,0.6-0.7,1.1
						c5.5-0.2,20.2,26.7,34,62.9c13.8,36.2,21.9,68.9,19,76c0.4,0,0.7-0.1,1-0.4l1.7-1.4
						C12004.1-992.3,11995.9-1026.8,11981.2-1065.4z M11974.2-1059.2c-14.7-38.5-30.4-66.5-35-62.5l-1.7,1.4
						c-0.3,0.2-0.5,0.6-0.7,1.1c5.5-0.2,20.2,26.7,34.1,62.9c13.8,36.2,21.9,68.9,19,76c0.4,0,0.7-0.1,1-0.4l1.7-1.4
						C11997.1-986.2,11988.9-1020.7,11974.2-1059.2z M11967.2-1053.1c-14.7-38.5-30.4-66.5-35-62.5l-1.7,1.4
						c-0.3,0.2-0.5,0.6-0.7,1.1c5.5-0.2,20.2,26.7,34.1,62.9c13.8,36.2,21.9,68.9,19,76c0.4,0,0.7-0.1,1-0.4l1.7-1.4
						C11990.1-980.1,11981.9-1014.6,11967.2-1053.1z M11960.1-1047c-14.7-38.5-30.4-66.5-35-62.5l-1.7,1.4c-0.3,0.2-0.5,0.6-0.7,1.1
						c5.5-0.2,20.2,26.7,34.1,62.9c13.8,36.2,21.9,68.9,19,76c0.4,0,0.7-0.1,1-0.4l1.7-1.4C11983-973.9,11974.9-1008.4,11960.1-1047
						z M11953.1-1040.8c-14.7-38.5-30.4-66.5-35-62.5l-1.7,1.4c-0.3,0.2-0.5,0.6-0.7,1.1c5.5-0.2,20.2,26.7,34.1,62.9
						c13.8,36.2,21.9,68.9,19,76c0.4,0,0.7-0.1,1-0.4l1.7-1.4C11976-967.8,11967.8-1002.3,11953.1-1040.8z M11946.1-1034.7
						c-14.7-38.5-30.4-66.5-35-62.5l-1.7,1.4c-0.3,0.2-0.5,0.6-0.7,1.1c5.5-0.2,20.2,26.7,34.1,62.9c13.8,36.2,21.9,68.9,19,76
						c0.4,0,0.7-0.1,1-0.4l1.7-1.4C11969-961.6,11960.8-996.2,11946.1-1034.7z"/>
					<path id="imagebot_55" sodipodi:nodetypes="ccccc" inkscape:connector-curvature="0" class="st29" d="M11985.8-1077.8
						c-10-25.1-20.1-44.9-26.6-52.7l-24.8,20.2c6.4,7.9,18.8,33.5,26.6,53.2L11985.8-1077.8z"/>
					
						<path id="imagebot_53" inkscape:transform-center-x="-146.99154" inkscape:transform-center-y="-180.41602" inkscape:connector-curvature="0" class="st6" d="
						M11960.5-1127.2c-0.4,0.1-0.9,0.3-1.3,0.4c-0.3-0.4-0.6-0.9-0.9-1.3c-0.1,0.6-0.1,1.2-0.1,1.7c-0.4,0.2-0.8,0.4-1.3,0.7
						c0.4,0.2,0.8,0.5,1.2,0.7c0,0.6,0.1,1.2,0.1,1.7c0.3-0.4,0.6-0.9,0.9-1.3c0.4,0.1,0.9,0.3,1.3,0.4c-0.2-0.5-0.5-1-0.7-1.5
						C11960-1126.2,11960.3-1126.7,11960.5-1127.2L11960.5-1127.2z M11965.2-1119.1c-0.5,0.1-0.9,0.2-1.4,0.4
						c-0.3-0.4-0.6-0.9-1-1.3c0,0.6-0.1,1.2-0.1,1.8c-0.4,0.2-0.9,0.5-1.3,0.7c0.4,0.2,0.9,0.5,1.3,0.7c0.1,0.6,0.1,1.2,0.2,1.8
						c0.3-0.4,0.6-0.9,0.9-1.3c0.5,0.1,0.9,0.3,1.4,0.4c-0.3-0.5-0.5-1-0.8-1.6C11964.7-1118.1,11965-1118.6,11965.2-1119.1
						L11965.2-1119.1z M11970.3-1110.1c-0.5,0.1-0.9,0.2-1.4,0.3c-0.3-0.5-0.7-1-1-1.5c0,0.6-0.1,1.2-0.1,1.9
						c-0.4,0.2-0.9,0.4-1.3,0.6c0.4,0.3,0.9,0.5,1.3,0.8c0.1,0.6,0.1,1.3,0.2,1.9c0.3-0.5,0.6-0.9,0.9-1.4c0.5,0.2,0.9,0.4,1.4,0.5
						c-0.3-0.6-0.5-1.1-0.8-1.7C11969.8-1109,11970-1109.5,11970.3-1110.1z M11975-1100.8c-0.5,0.1-0.9,0.2-1.4,0.3
						c-0.3-0.5-0.6-1-0.9-1.6c0,0.6-0.1,1.3-0.1,1.9c-0.4,0.2-0.9,0.4-1.3,0.6c0.4,0.3,0.9,0.6,1.3,0.9c0,0.7,0.1,1.3,0.1,2
						c0.3-0.5,0.6-0.9,0.9-1.4c0.5,0.2,0.9,0.4,1.4,0.6c-0.2-0.6-0.5-1.2-0.7-1.7C11974.5-1099.7,11974.8-1100.3,11975-1100.8
						L11975-1100.8z M11979.4-1091.4c-0.4,0.1-0.9,0.3-1.3,0.4c-0.3-0.5-0.6-1-0.9-1.5c0,0.7-0.1,1.3-0.1,2
						c-0.4,0.2-0.9,0.4-1.3,0.7c0.4,0.3,0.8,0.6,1.3,0.9c0,0.7,0.1,1.3,0.1,2c0.3-0.5,0.6-0.9,0.9-1.4c0.4,0.2,0.9,0.3,1.3,0.5
						c-0.2-0.6-0.4-1.1-0.7-1.7C11979-1090.3,11979.2-1090.9,11979.4-1091.4L11979.4-1091.4z M11983.8-1082.1
						c-0.4,0.2-0.9,0.3-1.3,0.5c-0.3-0.5-0.6-0.9-0.9-1.4c0,0.6-0.1,1.3-0.1,1.9c-0.4,0.2-0.8,0.5-1.3,0.7c0.4,0.3,0.8,0.5,1.2,0.8
						c0,0.6,0.1,1.2,0.1,1.8c0.3-0.4,0.6-0.9,0.9-1.4c0.4,0.1,0.9,0.3,1.3,0.4c-0.2-0.5-0.5-1.1-0.7-1.6
						C11983.4-1081,11983.6-1081.5,11983.8-1082.1L11983.8-1082.1z M11960.2-1120.6c-0.5,0.1-0.9,0.3-1.4,0.4
						c-0.3-0.4-0.6-0.9-0.9-1.3c0,0.6-0.1,1.2-0.1,1.7c-0.4,0.2-0.9,0.4-1.3,0.7c0.4,0.2,0.9,0.5,1.3,0.7c0,0.6,0.1,1.2,0.1,1.7
						c0.3-0.4,0.6-0.9,0.9-1.3c0.5,0.1,0.9,0.3,1.4,0.4c-0.2-0.5-0.5-1-0.7-1.5C11959.7-1119.6,11959.9-1120.1,11960.2-1120.6
						L11960.2-1120.6z M11965-1112.3c-0.5,0.1-0.9,0.2-1.4,0.3c-0.3-0.5-0.7-0.9-1-1.4c0,0.6-0.1,1.2-0.1,1.8
						c-0.4,0.2-0.9,0.4-1.3,0.7c0.4,0.3,0.9,0.5,1.3,0.8c0.1,0.6,0.1,1.2,0.2,1.8c0.3-0.4,0.6-0.9,0.9-1.3c0.5,0.2,0.9,0.3,1.4,0.5
						c-0.3-0.5-0.5-1.1-0.8-1.6C11964.5-1111.3,11964.7-1111.8,11965-1112.3L11965-1112.3z M11969.8-1103.3
						c-0.5,0.1-0.9,0.2-1.4,0.3c0,0,0,0,0-0.1c-0.3-0.5-0.6-1-0.9-1.5c0,0.6-0.1,1.3-0.1,1.9c-0.4,0.2-0.9,0.4-1.3,0.6
						c0.2,0.1,0.4,0.3,0.6,0.4c0.2,0.2,0.5,0.3,0.7,0.5c0.1,0.6,0.1,1.3,0.2,1.9c0.3-0.5,0.6-0.9,0.9-1.4c0.5,0.2,0.9,0.4,1.4,0.6
						c-0.2-0.6-0.5-1.2-0.8-1.7C11969.3-1102.2,11969.6-1102.8,11969.8-1103.3L11969.8-1103.3z M11974.6-1093.4
						c-0.5,0.1-0.9,0.2-1.4,0.3c-0.3-0.5-0.6-1.1-0.9-1.6c0,0.7-0.1,1.3-0.1,2c-0.4,0.2-0.9,0.4-1.3,0.6c0.4,0.3,0.9,0.6,1.3,0.9
						c0,0.7,0.1,1.3,0.1,2c0.3-0.5,0.6-0.9,0.9-1.4c0.5,0.2,0.9,0.4,1.3,0.6c-0.2-0.6-0.5-1.2-0.7-1.8
						C11974.1-1092.3,11974.4-1092.9,11974.6-1093.4L11974.6-1093.4z M11979-1084.1c-0.4,0.1-0.9,0.2-1.3,0.3
						c-0.3-0.5-0.6-1-0.9-1.5c0,0.6-0.1,1.3-0.1,1.9c-0.4,0.2-0.8,0.4-1.3,0.6c0.4,0.3,0.8,0.6,1.2,0.8c0,0.6,0.1,1.3,0.1,1.9
						c0.3-0.4,0.6-0.9,0.9-1.3c0.4,0.2,0.9,0.3,1.3,0.5c-0.2-0.5-0.5-1.1-0.7-1.7C11978.5-1083,11978.7-1083.5,11979-1084.1
						L11979-1084.1z M11955.4-1122.7c-0.4,0.1-0.9,0.2-1.3,0.3c-0.3-0.4-0.6-0.9-0.9-1.4c-0.1,0.6-0.1,1.2-0.2,1.7
						c-0.4,0.2-0.8,0.4-1.3,0.6c0.4,0.3,0.8,0.5,1.2,0.8c0,0.6,0.1,1.2,0.1,1.7c0.3-0.4,0.6-0.8,0.9-1.3c0.4,0.1,0.9,0.3,1.3,0.4
						c-0.2-0.5-0.5-1-0.7-1.5C11954.9-1121.7,11955.2-1122.2,11955.4-1122.7L11955.4-1122.7z M11960-1114.5
						c-0.5,0.1-0.9,0.2-1.4,0.4c-0.3-0.5-0.6-0.9-0.9-1.3c0,0.6-0.1,1.2-0.1,1.7c-0.4,0.2-0.9,0.4-1.3,0.6c0.4,0.2,0.9,0.5,1.3,0.7
						c0.1,0.6,0.1,1.2,0.2,1.8c0.3-0.4,0.6-0.9,0.9-1.3c0.5,0.1,0.9,0.3,1.4,0.5c-0.3-0.5-0.5-1-0.8-1.6
						C11959.5-1113.5,11959.7-1114,11960-1114.5L11960-1114.5z M11965-1105.5c-0.5,0.1-0.9,0.2-1.4,0.3c-0.3-0.5-0.7-1-1-1.5
						c0,0.6-0.1,1.2-0.1,1.9c-0.4,0.2-0.9,0.4-1.3,0.6c0.4,0.3,0.9,0.6,1.3,0.8c0.1,0.6,0.1,1.3,0.2,1.9c0.3-0.4,0.6-0.9,0.9-1.3
						c0.5,0.2,0.9,0.4,1.4,0.5c-0.3-0.6-0.5-1.1-0.8-1.7C11964.5-1104.5,11964.8-1105,11965-1105.5L11965-1105.5z M11969.8-1096.2
						c-0.5,0.1-0.9,0.2-1.4,0.3c-0.3-0.5-0.6-1.1-0.9-1.6c0,0.6-0.1,1.3-0.1,1.9c-0.4,0.2-0.9,0.4-1.3,0.6c0.4,0.3,0.9,0.6,1.3,0.9
						c0,0.7,0.1,1.3,0.1,2c0.3-0.5,0.6-0.9,0.9-1.4c0.5,0.2,0.9,0.4,1.4,0.6c-0.2-0.6-0.5-1.2-0.7-1.8
						C11969.3-1095.1,11969.5-1095.7,11969.8-1096.2L11969.8-1096.2z M11974.3-1086.7c-0.5,0.1-0.9,0.2-1.4,0.3
						c-0.3-0.5-0.6-1-0.9-1.6c0,0.6-0.1,1.3-0.1,1.9c-0.4,0.2-0.9,0.4-1.3,0.6c0.4,0.3,0.8,0.6,1.3,0.9c0,0.6,0.1,1.3,0.1,1.9
						c0.3-0.4,0.6-0.9,0.9-1.4c0.4,0.2,0.9,0.4,1.3,0.6c-0.2-0.6-0.5-1.1-0.7-1.7C11973.8-1085.6,11974-1086.1,11974.3-1086.7
						L11974.3-1086.7z M11978.8-1077.3c-0.4,0.1-0.9,0.2-1.3,0.3c-0.3-0.5-0.6-0.9-0.9-1.4c-0.1,0.6-0.1,1.2-0.2,1.8
						c-0.4,0.2-0.8,0.4-1.3,0.6c0.4,0.3,0.8,0.5,1.2,0.8c0,0.6,0.1,1.2,0.1,1.7c0.3-0.4,0.6-0.8,0.9-1.2c0.4,0.1,0.9,0.3,1.3,0.4
						c-0.2-0.5-0.5-1-0.7-1.5C11978.3-1076.3,11978.5-1076.8,11978.8-1077.3L11978.8-1077.3z M11955-1116.1
						c-0.5,0.1-0.9,0.2-1.4,0.3c-0.3-0.5-0.6-0.9-0.9-1.4c0,0.6-0.1,1.1-0.1,1.7c-0.4,0.2-0.9,0.4-1.3,0.6c0.4,0.3,0.9,0.5,1.3,0.8
						c0,0.6,0.1,1.2,0.1,1.7c0.3-0.4,0.6-0.8,0.9-1.3c0.5,0.2,0.9,0.3,1.4,0.5c-0.2-0.5-0.5-1-0.7-1.5
						C11954.6-1115.2,11954.8-1115.7,11955-1116.1L11955-1116.1z M11959.8-1107.8c-0.5,0.1-0.9,0.2-1.4,0.3c-0.3-0.5-0.6-0.9-1-1.4
						c0,0.6-0.1,1.2-0.1,1.8c-0.4,0.2-0.9,0.4-1.3,0.6c0.4,0.3,0.9,0.5,1.3,0.8c0.1,0.6,0.1,1.2,0.2,1.8c0.3-0.4,0.6-0.9,0.9-1.3
						c0.5,0.2,0.9,0.3,1.4,0.5c-0.3-0.5-0.5-1.1-0.8-1.6C11959.3-1106.8,11959.5-1107.3,11959.8-1107.8L11959.8-1107.8z
						 M11964.6-1098.7c-0.5,0.1-0.9,0.2-1.4,0.3c0,0,0,0,0-0.1c-0.3-0.5-0.6-1-0.9-1.5c0,0.6-0.1,1.3-0.1,1.9
						c-0.4,0.2-0.8,0.4-1.3,0.6c0.2,0.1,0.4,0.3,0.6,0.4c0.2,0.2,0.5,0.3,0.7,0.5c0.1,0.6,0.1,1.3,0.2,1.9c0.3-0.4,0.6-0.9,0.9-1.3
						c0.5,0.2,0.9,0.4,1.4,0.6c-0.3-0.6-0.5-1.2-0.8-1.7C11964.1-1097.7,11964.4-1098.2,11964.6-1098.7L11964.6-1098.7z
						 M11969.5-1088.8c-0.5,0.1-0.9,0.2-1.4,0.3c-0.3-0.5-0.6-1.1-0.9-1.6c0,0.6-0.1,1.3-0.1,1.9c-0.4,0.2-0.8,0.4-1.3,0.6
						c0.4,0.3,0.8,0.6,1.3,0.9c0,0.7,0.1,1.3,0.1,2c0.3-0.5,0.6-0.9,0.9-1.4c0.4,0.2,0.9,0.4,1.3,0.6c-0.2-0.6-0.5-1.2-0.7-1.8
						C11969-1087.8,11969.2-1088.3,11969.5-1088.8L11969.5-1088.8z M11973.8-1079.5c-0.4,0.1-0.9,0.2-1.3,0.3
						c-0.3-0.5-0.6-1-0.9-1.5c0,0.6-0.1,1.2-0.1,1.9c-0.4,0.2-0.8,0.4-1.3,0.6c0.4,0.3,0.8,0.6,1.2,0.8c0,0.6,0.1,1.2,0.1,1.8
						c0.3-0.4,0.6-0.9,0.9-1.3c0.4,0.2,0.9,0.3,1.3,0.5c-0.2-0.5-0.5-1.1-0.7-1.6C11973.4-1078.5,11973.6-1079,11973.8-1079.5
						L11973.8-1079.5z M11950.2-1118.4c-0.5,0.1-0.9,0.2-1.4,0.3c-0.3-0.5-0.6-0.9-0.9-1.4c-0.1,0.6-0.1,1.2-0.2,1.7
						c-0.4,0.2-0.9,0.4-1.3,0.6c0.4,0.3,0.8,0.5,1.3,0.8c0,0.6,0.1,1.2,0.1,1.7c0.3-0.4,0.6-0.8,0.9-1.2c0.5,0.2,0.9,0.3,1.4,0.5
						c-0.2-0.5-0.5-1-0.7-1.5C11949.8-1117.5,11950-1117.9,11950.2-1118.4L11950.2-1118.4z M11954.8-1110.1
						c-0.5,0.1-0.9,0.2-1.4,0.3c-0.3-0.5-0.6-0.9-1-1.4c0,0.6-0.1,1.2-0.1,1.7c-0.4,0.2-0.8,0.4-1.3,0.6c0.4,0.3,0.9,0.5,1.3,0.8
						c0.1,0.6,0.1,1.2,0.2,1.8c0.3-0.4,0.6-0.8,0.9-1.3c0.5,0.2,0.9,0.3,1.4,0.5c-0.3-0.5-0.5-1-0.8-1.6
						C11954.4-1109.1,11954.6-1109.6,11954.8-1110.1L11954.8-1110.1z M11959.9-1101.1c-0.5,0.1-0.9,0.2-1.4,0.3
						c-0.3-0.5-0.6-1-1-1.5c0,0.6,0,1.2-0.1,1.8c-0.4,0.2-0.8,0.4-1.3,0.6c0.4,0.3,0.9,0.6,1.3,0.9c0.1,0.6,0.1,1.3,0.2,1.9
						c0.3-0.4,0.6-0.9,0.9-1.3c0.5,0.2,0.9,0.4,1.4,0.6c-0.3-0.6-0.5-1.1-0.8-1.7C11959.4-1100,11959.6-1100.6,11959.9-1101.1z
						 M11964.6-1091.7c-0.5,0.1-0.9,0.2-1.4,0.3c-0.3-0.5-0.6-1.1-0.9-1.6c0,0.6-0.1,1.3-0.1,1.9c-0.4,0.2-0.8,0.4-1.3,0.6
						c0.4,0.3,0.9,0.6,1.3,0.9c0.1,0.7,0.1,1.3,0.2,2c0.3-0.4,0.6-0.9,0.9-1.3c0.4,0.2,0.9,0.4,1.3,0.6c-0.2-0.6-0.5-1.2-0.7-1.8
						C11964.2-1090.6,11964.4-1091.2,11964.6-1091.7L11964.6-1091.7z M11969.1-1082.2c-0.4,0.1-0.9,0.2-1.3,0.3
						c-0.3-0.5-0.6-1-0.9-1.6c0,0.6-0.1,1.3-0.1,1.9c-0.4,0.2-0.8,0.4-1.3,0.6c0.4,0.3,0.8,0.6,1.2,0.9c0,0.6,0.1,1.3,0.1,1.9
						c0.3-0.4,0.6-0.9,0.9-1.3c0.4,0.2,0.9,0.4,1.3,0.6c-0.2-0.6-0.5-1.1-0.7-1.7C11968.7-1081.1,11968.9-1081.6,11969.1-1082.2
						L11969.1-1082.2z M11973.6-1073c-0.4,0.1-0.9,0.2-1.3,0.4c-0.3-0.4-0.6-0.9-0.9-1.4c0,0.6-0.1,1.2-0.1,1.8
						c-0.4,0.2-0.8,0.4-1.3,0.7c0.4,0.2,0.8,0.5,1.2,0.7c0,0.6,0.1,1.1,0.1,1.7c0.3-0.4,0.6-0.9,0.9-1.3c0.4,0.1,0.9,0.2,1.3,0.4
						c-0.2-0.5-0.5-0.9-0.7-1.4C11973.2-1072,11973.4-1072.5,11973.6-1073L11973.6-1073z M11949.9-1111.9c-0.5,0.1-0.9,0.2-1.4,0.3
						c-0.3-0.5-0.6-0.9-0.9-1.4c0,0.6-0.1,1.1-0.1,1.7c-0.4,0.2-0.9,0.4-1.3,0.6c0.4,0.3,0.9,0.5,1.3,0.8c0.1,0.6,0.1,1.2,0.2,1.7
						c0.3-0.4,0.6-0.8,0.9-1.2c0.5,0.2,0.9,0.3,1.4,0.5c-0.3-0.5-0.5-1-0.8-1.5C11949.4-1111,11949.7-1111.4,11949.9-1111.9
						L11949.9-1111.9z M11954.7-1103.4c-0.5,0.1-0.9,0.2-1.3,0.3c-0.3-0.5-0.7-1-1-1.4c0,0.6,0,1.2-0.1,1.8
						c-0.4,0.2-0.8,0.4-1.3,0.6c0.4,0.3,0.9,0.6,1.3,0.8c0.1,0.6,0.1,1.2,0.2,1.8c0.3-0.4,0.6-0.8,0.9-1.3c0.5,0.2,0.9,0.4,1.4,0.6
						c-0.3-0.5-0.5-1.1-0.8-1.6C11954.2-1102.4,11954.5-1102.9,11954.7-1103.4L11954.7-1103.4z M11959.5-1094.3
						c-0.4,0.1-0.9,0.2-1.3,0.2c0,0,0,0,0-0.1c-0.3-0.5-0.6-1-0.9-1.5c0,0.6,0,1.2-0.1,1.9c-0.4,0.2-0.8,0.4-1.2,0.6
						c0.2,0.1,0.4,0.3,0.6,0.4c0.2,0.2,0.5,0.3,0.7,0.5c0.1,0.6,0.1,1.3,0.2,1.9c0.3-0.4,0.6-0.9,0.9-1.3c0.5,0.2,0.9,0.4,1.4,0.6
						c-0.3-0.6-0.5-1.2-0.8-1.8C11959.1-1093.3,11959.3-1093.8,11959.5-1094.3L11959.5-1094.3z M11964.4-1084.4
						c-0.4,0.1-0.9,0.2-1.3,0.2c-0.3-0.5-0.6-1.1-0.9-1.6c0,0.6-0.1,1.3-0.1,1.9c-0.4,0.2-0.8,0.4-1.2,0.6c0.4,0.3,0.8,0.6,1.2,1
						c0,0.7,0.1,1.3,0.1,2c0.3-0.4,0.6-0.9,0.9-1.3c0.4,0.2,0.9,0.4,1.3,0.6c-0.2-0.6-0.5-1.2-0.7-1.8
						C11963.9-1083.3,11964.1-1083.9,11964.4-1084.4L11964.4-1084.4z M11968.7-1075.1c-0.4,0.1-0.9,0.2-1.3,0.3
						c-0.3-0.5-0.6-1-0.9-1.5c0,0.6-0.1,1.3-0.1,1.9c-0.4,0.2-0.8,0.4-1.2,0.6c0.4,0.3,0.8,0.6,1.2,0.8c0,0.6,0.1,1.2,0.1,1.9
						c0.3-0.4,0.6-0.9,0.9-1.3c0.4,0.2,0.9,0.3,1.3,0.5c-0.2-0.5-0.5-1.1-0.7-1.6C11968.3-1074,11968.5-1074.6,11968.7-1075.1z
						 M11945-1114.4c-0.5,0.1-0.9,0.2-1.4,0.2c-0.3-0.5-0.6-0.9-0.9-1.4c-0.1,0.6-0.1,1.2-0.1,1.7c-0.4,0.2-0.9,0.4-1.3,0.6
						c0.4,0.3,0.9,0.6,1.3,0.8c0,0.6,0.1,1.2,0.2,1.8c0.3-0.4,0.6-0.8,0.9-1.2c0.5,0.2,0.9,0.3,1.4,0.5c-0.2-0.5-0.5-1-0.7-1.6
						C11944.6-1113.4,11944.8-1113.9,11945-1114.4L11945-1114.4z M11949.8-1105.9c-0.4,0.1-0.9,0.2-1.3,0.3c-0.3-0.5-0.6-0.9-1-1.4
						c0,0.6,0,1.2-0.1,1.7c-0.4,0.2-0.8,0.4-1.2,0.6c0.4,0.3,0.9,0.5,1.3,0.8c0.1,0.6,0.1,1.2,0.2,1.8c0.3-0.4,0.6-0.8,0.8-1.2
						c0.5,0.2,0.9,0.3,1.4,0.5c-0.3-0.5-0.5-1.1-0.8-1.6C11949.3-1105,11949.5-1105.4,11949.8-1105.9L11949.8-1105.9z
						 M11954.9-1096.8c-0.4,0.1-0.9,0.2-1.3,0.2c-0.3-0.5-0.7-1-1-1.5c0,0.6,0,1.2,0,1.8c-0.4,0.2-0.8,0.4-1.2,0.5
						c0.4,0.3,0.9,0.6,1.3,0.9c0.1,0.6,0.2,1.2,0.2,1.9c0.3-0.4,0.5-0.9,0.8-1.3c0.5,0.2,0.9,0.4,1.4,0.6c-0.3-0.6-0.5-1.1-0.8-1.7
						C11954.4-1095.8,11954.6-1096.3,11954.9-1096.8z M11959.6-1087.3c-0.4,0.1-0.9,0.1-1.3,0.2c-0.3-0.5-0.6-1.1-0.9-1.6
						c0,0.6,0,1.3-0.1,1.9c-0.4,0.2-0.8,0.4-1.2,0.5c0.4,0.3,0.8,0.7,1.3,1c0.1,0.7,0.1,1.3,0.2,2c0.3-0.4,0.6-0.9,0.8-1.3
						c0.4,0.2,0.9,0.4,1.3,0.7c-0.2-0.6-0.5-1.2-0.7-1.8C11959.2-1086.3,11959.4-1086.8,11959.6-1087.3L11959.6-1087.3z
						 M11964.1-1077.7c-0.4,0.1-0.9,0.2-1.3,0.3c-0.3-0.5-0.6-1.1-0.9-1.6c0,0.6-0.1,1.3-0.1,1.9c-0.4,0.2-0.8,0.4-1.2,0.6
						c0.4,0.3,0.8,0.6,1.2,0.9c0,0.6,0.1,1.3,0.1,1.9c0.3-0.4,0.6-0.9,0.9-1.3c0.4,0.2,0.9,0.4,1.3,0.6c-0.2-0.6-0.5-1.1-0.7-1.7
						C11963.7-1076.7,11963.9-1077.2,11964.1-1077.7L11964.1-1077.7z M11968.6-1068.5c-0.4,0.1-0.9,0.3-1.3,0.4
						c-0.3-0.4-0.6-0.9-0.9-1.4c0,0.6-0.1,1.2-0.1,1.8c-0.4,0.2-0.8,0.5-1.2,0.7c0.4,0.2,0.8,0.5,1.2,0.7c0,0.6,0.1,1.2,0.1,1.8
						c0.3-0.5,0.6-0.9,0.9-1.4c0.4,0.1,0.9,0.2,1.3,0.3c-0.2-0.5-0.5-1-0.7-1.5C11968.1-1067.5,11968.3-1068,11968.6-1068.5
						L11968.6-1068.5z M11944.8-1107.8c-0.4,0.1-0.9,0.2-1.3,0.3c-0.3-0.5-0.7-0.9-1-1.4c0,0.6,0,1.2,0,1.7
						c-0.4,0.2-0.8,0.4-1.2,0.6c0.4,0.3,0.9,0.5,1.3,0.8c0.1,0.6,0.2,1.2,0.2,1.8c0.3-0.4,0.5-0.8,0.8-1.3c0.5,0.2,0.9,0.3,1.4,0.5
						c-0.3-0.5-0.5-1-0.8-1.6C11944.4-1106.9,11944.6-1107.4,11944.8-1107.8L11944.8-1107.8z M11949.8-1099.3
						c-0.4,0.1-0.9,0.2-1.3,0.3c-0.3-0.5-0.7-1-1-1.4c0,0.6,0,1.2,0,1.8c-0.4,0.2-0.8,0.4-1.2,0.6c0.4,0.3,0.9,0.5,1.3,0.8
						c0.1,0.6,0.2,1.2,0.3,1.8c0.3-0.4,0.5-0.8,0.8-1.3c0.5,0.2,0.9,0.4,1.4,0.6c-0.3-0.5-0.5-1.1-0.8-1.6
						C11949.4-1098.3,11949.6-1098.8,11949.8-1099.3L11949.8-1099.3z M11954.7-1090.1c-0.4,0.1-0.9,0.1-1.3,0.2c0,0,0,0,0-0.1
						c-0.3-0.5-0.6-1-0.9-1.5c0,0.6,0,1.2,0,1.9c-0.4,0.2-0.8,0.4-1.2,0.5c0.2,0.1,0.4,0.3,0.6,0.4c0.2,0.2,0.4,0.3,0.7,0.5
						c0.1,0.6,0.1,1.3,0.2,1.9c0.3-0.4,0.5-0.8,0.8-1.3c0.4,0.2,0.9,0.4,1.3,0.7c-0.3-0.6-0.5-1.2-0.8-1.8
						C11954.3-1089.1,11954.5-1089.6,11954.7-1090.1L11954.7-1090.1z M11959.4-1080c-0.4,0.1-0.9,0.1-1.3,0.2
						c-0.3-0.5-0.6-1.1-0.9-1.6c0,0.6,0,1.3-0.1,1.9c-0.4,0.2-0.8,0.3-1.2,0.5c0.4,0.3,0.8,0.7,1.2,1c0,0.7,0.1,1.3,0.1,2
						c0.3-0.4,0.6-0.9,0.8-1.3c0.4,0.2,0.9,0.4,1.3,0.7c-0.2-0.6-0.5-1.2-0.7-1.8C11959-1079,11959.2-1079.5,11959.4-1080
						L11959.4-1080z M11963.8-1070.5c-0.4,0.1-0.9,0.2-1.3,0.3c-0.3-0.5-0.6-1-0.9-1.5c0,0.6-0.1,1.3-0.1,1.9
						c-0.4,0.2-0.8,0.4-1.2,0.6c0.4,0.3,0.8,0.6,1.2,0.9c0,0.6,0.1,1.3,0.1,1.9c0.3-0.4,0.6-0.9,0.9-1.3c0.4,0.2,0.9,0.3,1.3,0.5
						c-0.2-0.5-0.4-1.1-0.7-1.7C11963.3-1069.5,11963.5-1070,11963.8-1070.5z M11939.9-1110.3c-0.5,0.1-0.9,0.2-1.4,0.3
						c-0.3-0.5-0.6-0.9-1-1.4c0,0.6,0,1.2-0.1,1.8c-0.4,0.2-0.8,0.4-1.3,0.6c0.4,0.3,0.9,0.5,1.3,0.8c0.1,0.6,0.2,1.2,0.2,1.8
						c0.3-0.4,0.5-0.9,0.8-1.3c0.5,0.2,0.9,0.3,1.4,0.5c-0.3-0.5-0.5-1-0.8-1.6C11939.5-1109.3,11939.7-1109.8,11939.9-1110.3
						L11939.9-1110.3z M11944.9-1101.8c-0.4,0.1-0.9,0.2-1.3,0.3c-0.3-0.5-0.7-0.9-1-1.4c0,0.6,0,1.2,0,1.8
						c-0.4,0.2-0.8,0.4-1.2,0.6c0.4,0.2,0.9,0.5,1.3,0.8c0.1,0.6,0.2,1.2,0.3,1.8c0.2-0.4,0.5-0.9,0.7-1.3c0.4,0.2,0.9,0.3,1.3,0.5
						c-0.3-0.5-0.5-1.1-0.8-1.6C11944.5-1100.8,11944.7-1101.3,11944.9-1101.8L11944.9-1101.8z M11950.1-1092.6
						c-0.4,0.1-0.8,0.2-1.3,0.2c-0.3-0.5-0.7-1-1-1.5c0,0.6,0,1.2,0,1.8c-0.4,0.2-0.8,0.4-1.1,0.6c0.4,0.3,0.8,0.6,1.3,0.9
						c0.1,0.6,0.2,1.2,0.3,1.9c0.2-0.4,0.5-0.9,0.7-1.3c0.4,0.2,0.9,0.4,1.3,0.6c-0.3-0.6-0.5-1.1-0.8-1.7
						C11949.7-1091.7,11949.9-1092.1,11950.1-1092.6L11950.1-1092.6z M11954.9-1083.2c-0.4,0.1-0.8,0.1-1.3,0.2
						c-0.3-0.5-0.6-1.1-0.9-1.6c0,0.6,0,1.3,0,1.9c-0.4,0.2-0.8,0.3-1.1,0.5c0.4,0.3,0.8,0.7,1.2,1c0.1,0.6,0.1,1.3,0.2,1.9
						c0.3-0.4,0.5-0.8,0.8-1.3c0.4,0.2,0.8,0.5,1.3,0.7c-0.2-0.6-0.5-1.2-0.7-1.8C11954.5-1082.1,11954.7-1082.7,11954.9-1083.2
						L11954.9-1083.2z M11959.2-1073.4c-0.4,0.1-0.8,0.1-1.3,0.2c-0.3-0.5-0.6-1.1-0.9-1.6c0,0.6-0.1,1.3-0.1,1.9
						c-0.4,0.2-0.8,0.3-1.2,0.5c0.4,0.3,0.8,0.7,1.2,1c0,0.7,0.1,1.3,0.1,1.9c0.3-0.4,0.6-0.8,0.8-1.3c0.4,0.2,0.8,0.4,1.3,0.7
						c-0.2-0.6-0.4-1.2-0.7-1.8C11958.8-1072.3,11959-1072.8,11959.2-1073.4L11959.2-1073.4z M11963.6-1063.8
						c-0.4,0.1-0.9,0.3-1.3,0.4c-0.3-0.5-0.6-1-0.9-1.5c0,0.6-0.1,1.2-0.1,1.9c-0.4,0.2-0.8,0.4-1.2,0.6c0.4,0.3,0.8,0.6,1.2,0.8
						c0,0.6,0.1,1.2,0.1,1.9c0.3-0.5,0.6-0.9,0.9-1.4c0.4,0.1,0.9,0.3,1.3,0.4c-0.2-0.5-0.5-1-0.7-1.6
						C11963.2-1062.7,11963.4-1063.2,11963.6-1063.8L11963.6-1063.8z"/>
				</g>
			</g>
			
				<path id="path3085" inkscape:original-d="m -226.17586,340.00694 c -4.52491,0.31631 -12.93956,5.30166 -17.65625,8.70695 1.36075,0.34793 2.56882,1.65428 2.3125,3.52311 6.9575,-5.56034 11.79762,-7.42048 13.84375,-8.01701 0.0423,-0.0117 0.0883,-0.0267 0.125,-0.0333 0.22067,-0.0239 0.36605,0.0778 0.34375,0.30664 -0.008,0.068 -0.0189,0.12098 -0.0312,0.15679 -1.0721,3.02392 -4.28802,7.10374 -7.40625,10.62613 l -0.5625,0.01 0.65625,-2.51118 -4.8125,0.082 -0.6875,2.51171 -2.375,0.0405 -0.53125,2.22779 2.34375,-0.0399 -1.25,4.74004 c -1.3106,1.178 -2.64478,2.33903 -3.96875,3.44259 l 2.65625,-10.35774 -5.3125,0.0905 -2.9375,11.48753 4.21875,-0.0718 c -7.35425,5.96719 -14.18481,10.23473 -15.40625,9.35613 -0.94394,-0.67935 0.92532,-3.88413 4.0625,-7.81919 l -1.09375,0.0186 c -3.40464,3.9775 -5.36297,7.40488 -4,8.84937 4.33186,4.58686 46.31874,-30.71406 39.875,-36.74159 -0.53661,-0.50176 -1.36204,-0.65701 -2.40625,-0.58402 z m -18.78125,9.63236 c -1.34849,0.023 -2.4375,1.1439 -2.4375,2.47901 0,1.33511 1.08901,2.3877 2.4375,2.36474 1.34848,-0.023 2.4375,-1.11266 2.4375,-2.44777 0,-1.33511 -1.08902,-2.41895 -2.4375,-2.39598 z m -17.03125,2.0088 -4.0625,15.60043 6.78125,-0.11549 3.34375,-0.0569 c 2.00711,-0.0342 3.08783,-0.9206 3.625,-3.03049 l 1.09375,-4.08112 c 0.0936,-0.39835 0.1875,-1.11431 0.1875,-1.53445 0,-0.701 -0.25964,-1.26307 -0.75,-1.76847 -0.72328,-0.78117 -1.44288,-1.06918 -2.84375,-1.04532 l -2.4375,0.0415 c -0.98071,0.0167 -1.2127,0.13188 -1.65625,0.6532 l 1.1875,-4.73897 -4.46875,0.0761 z m 47.03125,-0.80097 -4.03125,15.59991 5.59375,-0.0953 4.03125,-15.5999 -5.59375,0.0953 z m -71.71875,1.2526 c -1.47107,0.0251 -2.47894,0.23151 -3.34375,0.7132 -0.8871,0.50546 -1.37665,1.30238 -1.75,2.7798 l -2,7.65906 -0.15625,0.62767 c -0.0703,0.25752 -0.125,0.55059 -0.125,0.87712 0,0.74668 0.21269,1.36547 0.65625,1.89508 0.72438,0.92157 1.29766,1.1029 3.375,1.06752 l 7.9375,-0.13518 c 1.68059,-0.0286 2.67415,-0.29761 3.46875,-0.96532 0.72327,-0.57177 1.05631,-1.17838 1.40625,-2.4927 l 1.96875,-7.72103 c 0.13931,-0.53953 0.21875,-0.98199 0.21875,-1.37873 0,-0.72328 -0.24395,-1.40402 -0.6875,-1.95704 -0.7244,-0.87476 -1.51503,-1.13045 -3.40625,-1.09824 l -7.5625,0.12879 z m 2.4375,2.52099 2.15625,-0.0367 c 0.79349,-0.0135 1.15625,0.19301 1.15625,0.63656 0,0.11702 -0.0168,0.27508 -0.0625,0.43856 -0.0468,0.18803 -0.10159,0.32333 -0.125,0.43963 l -1.96875,7.56478 c -0.23404,0.91449 -0.25139,0.97441 -0.4375,1.1637 -0.16383,0.16661 -0.30783,0.19274 -0.9375,0.20347 l -2.28125,0.0388 c -0.9796,0.0167 -1.34375,-0.11961 -1.34375,-0.63337 0,-0.0703 0.0468,-0.15731 0.0937,-0.34534 l 0.0937,-0.3766 1.9375,-7.56424 c 0.32653,-1.28941 0.57532,-1.5098 1.71875,-1.52928 z m 10.65625,1.31852 -2.9375,11.48753 5.59375,-0.0953 1.875,-7.31318 c 0.21063,-0.77366 0.55838,-1.10326 1.5625,-1.12036 l 2.59375,-0.0442 0.78125,-3.07581 -1.6875,0.0287 c -1.70398,0.029 -2.39402,0.46824 -3.1875,2.02304 l 0.59375,-1.97886 -5.1875,0.0883 z m 44.46875,-0.75732 c -0.72217,0.75786 -1.46654,1.51826 -2.25,2.28832 l 6.96875,-0.11868 c 0.93391,-0.0159 1.21875,0.10604 1.21875,0.57299 0,0.53717 -0.32201,0.97423 -0.71875,0.98099 l -0.375,0.006 -4.53125,0.0772 c -1.30725,0.0223 -1.72853,0.0936 -2.3125,0.47688 -0.70099,0.43209 -1.10312,1.10085 -1.40625,2.27395 l -0.28125,1.09854 c -0.11582,0.39872 -0.15625,0.76203 -0.15625,1.06516 0,1.704 1.34349,2.75837 3.46875,2.72218 l 2.46875,-0.0421 6.21875,-0.10591 1.84375,-7.0314 c 0.13932,-0.56294 0.21875,-1.18503 0.21875,-1.53497 0,-1.72739 -1.24038,-2.88513 -3.0625,-2.8541 l -7.3125,0.12454 z m -29.03125,2.71316 1.34375,-0.0229 c 0.79349,-0.0135 1.125,0.22492 1.125,0.76209 0,0.0703 0.007,0.1264 -0.0625,0.40731 l -0.0937,0.28285 -1.03125,4.04881 c -0.35105,1.36115 -0.52726,1.50898 -1.625,1.52768 l -1.21875,0.0208 c -0.70099,0.0119 -1.03125,-0.19514 -1.03125,-0.63868 0,-0.0703 0.008,-0.17222 0.0312,-0.31304 0.0468,-0.16351 0.0625,-0.25106 0.0625,-0.25106 l 1.1875,-4.64522 c 0.25633,-0.96279 0.4488,-1.1639 1.3125,-1.17861 z m 31.5625,3.21248 2.6875,-0.0458 -0.625,2.44815 c -0.20952,0.77365 -0.30838,0.81775 -1.3125,0.83485 l -1.375,0.0234 c -0.8403,0.0143 -1.09375,-0.10045 -1.09375,-0.63762 0,-0.0936 1.5e-4,-0.1411 0.0937,-0.47034 l 0.3125,-1.19283 c 0.21063,-0.82158 0.35519,-0.94355 1.3125,-0.95985 z m -9.59375,0.85089 c -1.61819,1.4351 -3.29708,2.85718 -4.96875,4.20962 0.64303,0.51061 1.46466,0.6313 3.25,0.6009 l 2.90625,-0.0495 0.71875,-2.29349 -0.65625,0.0112 c -1.12114,0.0191 -1.625,-0.12281 -1.625,-0.75358 0,-0.11702 0.007,-0.25811 0.0312,-0.37553 l 0.34375,-1.3496 z" inkscape:path-effect="#path-effect4870" inkscape:connector-curvature="0" class="st30" d="
				M1312.7-8.2c-0.1-0.2-0.2-0.4-0.4-0.5c-0.3-0.2-0.6-0.5-1-0.6c-0.4-0.2-0.8-0.3-1.1-0.5c0,0.2-0.1,0.6-0.5,0.7
				c0.5,0.2,0.8,0.3,1.1,0.5s0.5,0.3,0.7,0.4c0.2,0.1,0.3,0.2,0.3,0.3c0,0,0,0,0,0c0,0,0,0.1,0,0.1c0,0,0,0,0,0
				c-0.3,0.1-0.7,0.1-1.1,0.1l0,0c-0.3,0-0.7-0.1-1-0.1c0,0,0-0.1,0-0.1c0.1,0,0.3-0.1,0.4-0.1c-0.1-0.2-0.2-0.5-0.3-0.7
				c-0.1,0-0.3,0.1-0.4,0.1c-0.1-0.1-0.1-0.2-0.2-0.3c-0.1,0-0.2,0.1-0.4,0.1c0.1,0.1,0.1,0.2,0.2,0.3c-0.3,0.1-0.5,0.1-0.7,0.2
				c-0.2-0.1-0.5-0.2-0.7-0.3c0.4-0.1,1-0.2,1.5-0.4c-0.1-0.3-0.3-0.5-0.4-0.8c-0.7,0.2-1.2,0.4-1.7,0.4c0.1,0.2,0.2,0.4,0.3,0.6
				c-0.6-0.3-1-0.7-1.4-1c-0.2-0.2-0.4-0.3-0.5-0.4c-0.1-0.1-0.2-0.2-0.2-0.3c0-0.1,0.1-0.1,0.2,0s0.5,0.1,0.8,0.3
				c0,0-0.1-0.1-0.1-0.1c-0.4-0.1-0.6-0.2-0.8-0.3c-0.2,0-0.3,0-0.3,0.1c0,0.1,0.1,0.2,0.2,0.3c0.1,0.2,0.3,0.3,0.5,0.5
				c0.5,0.5,1.1,1,1.8,1.4c0.4,0.2,0.8,0.4,1.2,0.6c0.4,0.2,0.8,0.3,1.3,0.4c0.6,0.1,1.2,0.2,1.7,0.1c0.5-0.1,0.8-0.3,0.9-0.6
				C1312.7-7.9,1312.7-8,1312.7-8.2C1312.7-8.2,1312.7-8.2,1312.7-8.2L1312.7-8.2z M1309.9-9.9c-0.1-0.2-0.4-0.2-0.6-0.1
				c-0.2,0.1-0.3,0.4-0.2,0.6c0.1,0.2,0.3,0.2,0.6,0.1C1309.9-9.4,1310-9.7,1309.9-9.9L1309.9-9.9z M1308.2-11.9
				c-1,0.3-1.9,0.6-2.6,0.7c0.2,0.3,0.4,0.6,0.6,0.9c0.1,0.1,0.1,0.2,0.2,0.3c0,0,0.1,0.1,0.1,0.1c0.1,0.1,0.2,0.2,0.3,0.3
				c0.1,0.1,0.2,0.1,0.4,0c0.2,0,0.4-0.1,0.6-0.1c0.1,0,0.2-0.1,0.2-0.1c0.1-0.1,0.2-0.1,0.2-0.3c0.1-0.2,0.1-0.3-0.1-0.5
				c-0.1-0.1-0.1-0.2-0.2-0.3c0,0,0,0,0,0c-0.1-0.1-0.1-0.1-0.2-0.2c0.3-0.1,0.6-0.2,0.9-0.3C1308.5-11.6,1308.4-11.8,1308.2-11.9
				L1308.2-11.9L1308.2-11.9z M1311.5-5.2c-0.4,0.2-0.8,0.3-1.2,0.4c-0.4,0.1-0.8,0.2-1.1,0.3c0.1,0.3,0.2,0.6,0.4,0.9
				c0.4-0.1,0.8-0.2,1.2-0.4c0.4-0.1,0.8-0.3,1.2-0.4C1311.7-4.6,1311.6-4.9,1311.5-5.2L1311.5-5.2L1311.5-5.2z M1305.8-15
				c-0.1-0.1-0.2-0.2-0.3-0.3l0,0c0,0-0.1-0.1-0.1-0.1c-0.2-0.1-0.3-0.1-0.6,0c-0.1,0-0.2,0-0.2,0.1c-0.4,0.1-0.7,0.2-1.1,0.2
				c0,0-0.1,0-0.1,0c0,0-0.1,0-0.2,0c-0.1,0.1-0.2,0.1-0.3,0.2c0,0.1-0.1,0.2,0,0.2c0,0.1,0.1,0.2,0.2,0.3c0,0,0.1,0.1,0.1,0.1
				c0.2,0.3,0.5,0.6,0.7,0.9c0.1,0.1,0.1,0.1,0.1,0.2c0.1,0.1,0.2,0.2,0.3,0.2c0.1,0.1,0.3,0.1,0.5,0c0.4-0.1,0.8-0.2,1.3-0.3
				c0.1,0,0.2-0.1,0.2-0.1c0.1-0.1,0.2-0.1,0.2-0.3c0.1-0.2,0-0.3-0.2-0.5c-0.1-0.1-0.1-0.1-0.2-0.2
				C1306.2-14.5,1306-14.8,1305.8-15L1305.8-15z M1305.6-14.5c0.1,0.1,0.1,0.2,0.2,0.3c0.1,0.1,0.1,0.2,0,0.2c0,0,0,0-0.1,0
				c0,0-0.1,0-0.1,0c-0.5,0.1-0.9,0.2-1.3,0.3c-0.1,0-0.2,0-0.2,0c0,0-0.1,0-0.1-0.1c-0.1-0.1-0.2-0.2-0.2-0.3
				c-0.1-0.1-0.1-0.2,0-0.2c0,0,0,0,0.1,0c0,0,0,0,0.1,0c0.4-0.1,0.9-0.2,1.3-0.3C1305.5-14.7,1305.5-14.7,1305.6-14.5L1305.6-14.5
				L1305.6-14.5z M1306.4-13c-0.7,0.2-1.3,0.3-1.9,0.4c0.2,0.2,0.4,0.5,0.6,0.7c0.3-0.1,0.7-0.1,1.1-0.2c0.1,0,0.2,0,0.3,0.1
				c0.1,0.1,0.2,0.2,0.2,0.3c0.2,0,0.3-0.1,0.5-0.2c-0.1-0.1-0.1-0.1-0.2-0.2c-0.2-0.2-0.3-0.3-0.6-0.2c0.1,0,0.2-0.1,0.4-0.1
				C1306.8-12.6,1306.6-12.8,1306.4-13L1306.4-13L1306.4-13z M1310-6.9c-0.1,0-0.2-0.1-0.3-0.1c-0.1,0-0.1,0-0.2,0c0,0,0,0.1,0,0.1
				c0.1,0.3,0.3,0.6,0.4,1c0.1,0.1,0.1,0.2,0,0.2c-0.1,0-0.2,0-0.2,0c0,0,0,0,0-0.1c-0.1-0.2-0.2-0.5-0.3-0.7
				c-0.1-0.1-0.1-0.2-0.1-0.3l0,0c0,0,0,0-0.1-0.1c-0.1-0.1-0.2-0.1-0.4,0c-0.1,0-0.1,0-0.2,0c-0.1,0-0.1,0-0.1,0.1
				c-0.2,0.1-0.2,0.3-0.2,0.5l0,0c0,0.1,0,0.1,0.1,0.2c0,0.1,0.1,0.3,0.1,0.4c0.1,0.3,0.2,0.7,0.4,1c0.3-0.1,0.6-0.2,0.9-0.3
				c0,0,0,0,0.1,0c0.1,0,0.2-0.1,0.2-0.1c0.1,0,0.1-0.1,0.2-0.2c0.1-0.2,0.1-0.4,0-0.5C1310.3-6.2,1310.1-6.6,1310-6.9L1310-6.9
				L1310-6.9z M1307.6-10.9c0,0.1,0.1,0.1,0.1,0.2c0,0,0,0,0,0c0.1,0.1,0.1,0.2,0,0.2c0,0,0,0-0.1,0c0,0,0,0,0,0
				c-0.2,0.1-0.4,0.1-0.6,0.2c0,0,0,0,0,0l0,0c-0.2,0-0.2,0-0.3-0.1c0-0.1-0.1-0.1-0.1-0.2c-0.1-0.1-0.1-0.1,0-0.2c0,0,0,0,0,0
				c0,0,0,0,0,0c0.2,0,0.5-0.1,0.7-0.2C1307.4-11,1307.5-11,1307.6-10.9L1307.6-10.9L1307.6-10.9z M1309.3-6
				c0.1,0.1,0.1,0.3,0.2,0.4c-0.1,0-0.2,0.1-0.3,0.1c-0.1,0-0.1,0-0.2-0.1c0-0.1-0.1-0.1-0.1-0.2c-0.1-0.1-0.1-0.2,0-0.2
				c0,0,0,0,0.1,0c0.1,0,0.1,0,0.2,0C1309.2-6.2,1309.3-6.2,1309.3-6L1309.3-6L1309.3-6z M1308.6-7.4c-0.3-0.1-0.6-0.3-0.8-0.5
				c0,0.1,0,0.3,0.2,0.5c0.1,0.1,0.1,0.3,0.2,0.4c0.1,0,0.2,0,0.3,0c0,0,0-0.1,0-0.1c-0.1-0.2-0.1-0.3,0-0.3c0,0,0,0,0,0
				C1308.5-7.4,1308.6-7.4,1308.6-7.4L1308.6-7.4L1308.6-7.4z"/>
			
				<linearGradient id="path3922_1_" gradientUnits="userSpaceOnUse" x1="346.257" y1="675.9557" x2="356.7202" y2="675.9557" gradientTransform="matrix(0.4868 0.8431 0.866 -0.5 530.9617 44.1971)">
				<stop  offset="0" style="stop-color:#FFFFFF"/>
				<stop  offset="1" style="stop-color:#FFFFFF;stop-opacity:0"/>
			</linearGradient>
			<path id="path3922" inkscape:connector-curvature="0" class="st31" d="M1364-41.3c-0.6-1.1-1.7-1.5-2.5-1.5l-7.3,0l-8.6,2.2
				c0.1,0.1,0.2,0.2,0.4,0.2l0.1,0.2c-0.2-0.1-0.4-0.3-0.5-0.4L1322.1-27c0.1,0.1,0.2,0.2,0.4,0.2c1.1,0.8,2.3,2,3.4,3.5l22.2-12.8
				c0.2,0.1,0.3,0.2,0.5,0.3l-0.1-0.2c-0.1-0.1-0.2-0.1-0.3-0.2l8.4-2.5l7-0.4c0.2,0,0.4,0,0.6,0C1364.4-39.6,1364.5-40.4,1364-41.3
				z M1329.8-17c-0.2-0.4-0.4-0.7-0.7-1.1l0,0C1329.3-17.7,1329.6-17.3,1329.8-17c0.2,0.4,0.4,0.8,0.6,1.1l0,0
				C1330.2-16.2,1330-16.6,1329.8-17L1329.8-17z M1329-18.2c-0.1-0.1-0.1-0.2-0.2-0.3C1328.8-18.4,1328.9-18.4,1329-18.2
				C1328.9-18.2,1329-18.2,1329-18.2L1329-18.2L1329-18.2z M1330.5-15.6L1330.5-15.6c0.4,1,0.8,2,1.1,2.9l0,0
				C1331.3-13.7,1331-14.7,1330.5-15.6L1330.5-15.6z M1328.7-18.7c-1.1-1.6-2.4-2.8-3.7-3.6c-0.1-0.1-0.2-0.1-0.3-0.2l1.2-0.7
				c-1.3-1.6-2.6-2.9-3.8-3.7l-7.6,4.4c0.1,0.1,0.2,0.2,0.4,0.2c1.1,0.8,2.3,2,3.4,3.5l6.3-3.7c1.4,0.8,2.9,2.2,4.2,4
				C1328.8-18.5,1328.7-18.6,1328.7-18.7z M1322.1-12.5c-0.3-0.6-0.7-1.1-1-1.6c0,0.1,0.1,0.2,0.1,0.3
				C1321.6-13.4,1321.9-12.9,1322.1-12.5c0.8,1.5,1.4,2.9,1.8,4.2l0,0C1323.5-9.7,1322.9-11.1,1322.1-12.5z M1321-14.3
				c-1.1-1.6-2.4-2.8-3.7-3.6c-0.1-0.1-0.2-0.1-0.3-0.2l1.2-0.7c-1.3-1.6-2.6-2.9-3.8-3.7l-1.9,1.1c0.1,0.1,0.2,0.2,0.4,0.2
				c1.1,0.8,2.3,2,3.4,3.5l0.7-0.4c1.4,0.8,2.9,2.2,4.2,4.1C1321.1-14.1,1321-14.2,1321-14.3z M1320.1-11.4c-0.3-0.6-0.7-1.1-1-1.6
				c0,0.1,0.1,0.2,0.1,0.3C1319.5-12.2,1319.8-11.8,1320.1-11.4c0.8,1.5,1.4,2.9,1.8,4.2l0,0C1321.5-8.5,1320.9-9.9,1320.1-11.4z
				 M1319-13.1c-0.7-0.9-1.4-1.7-2.1-2.4c0.1,0.1,0.1,0.2,0.1,0.2c0.7,0.7,1.4,1.5,2.1,2.4C1319.1-12.9,1319-13,1319-13.1L1319-13.1
				z M1316.2-17.6c-1.3-1.6-2.6-2.9-3.8-3.7l-0.5,0.3c0,0,0,0,0,0l0,0c1.2,0.8,2.5,2.1,3.8,3.7L1316.2-17.6z M1319.5-11
				c-0.3-0.6-0.7-1.1-1-1.6c0,0.1,0.1,0.2,0.1,0.2C1318.9-11.9,1319.2-11.4,1319.5-11c0.1,0.2,0.1,0.3,0.2,0.5
				c0,0.1,0.1,0.2,0.1,0.2c0,0,0,0.1,0.1,0.1c0,0,0,0.1,0.1,0.1c0.1,0.2,0.2,0.3,0.3,0.5c0.1,0.2,0.2,0.5,0.3,0.7c0,0,0,0.1,0,0.1
				c0-0.1,0-0.1,0-0.2C1320.2-9.6,1319.9-10.3,1319.5-11L1319.5-11z M1316.9-15.4c-0.1-0.1-0.1-0.2-0.2-0.2c-0.5-0.4-1-0.8-1.4-1.1
				c-0.1-0.1-0.2-0.1-0.3-0.2l0.6-0.3c-1.3-1.6-2.6-2.9-3.8-3.7l-104.3,60.2c0,0,0,0,0,0l-0.1,0.1c0.7,0.9,1.5,1.9,2.3,3
				c0.3,0.3,0.6,0.7,0.9,1.1l103.8-59.9c1.4,0.8,2.9,2.2,4.2,4.1c0-0.1-0.1-0.2-0.1-0.3c-0.1-0.2-0.2-0.3-0.4-0.5c0,0,0,0,0,0
				c-1.1-1.5-2.4-2.6-3.6-3.3l0,0c0,0,0,0,0,0l0.5-0.3C1315.5-16.5,1316.2-16,1316.9-15.4L1316.9-15.4z M1320.6-8.8
				c0,0.1,0,0.1,0,0.2c0,0,0,0.1,0,0.1c0,0,0,0,0,0c0.1,0.2,0.1,0.3,0.2,0.5c0.1,0.2,0.2,0.4,0.2,0.7c0,0,0,0,0,0
				c0,0.1,0.1,0.2,0.1,0.3c0,0.1,0,0.2,0.1,0.2l0,0C1321.1-7.5,1320.9-8.2,1320.6-8.8L1320.6-8.8z M1214.1,49.8
				c0.5,1.4,0.9,2.8,1.1,4c0.1,0.2,0.2,0.3,0.4,0.5l0.4-0.2c-0.2-0.7-0.4-1.4-0.8-2.2c0,0,0,0,0,0c-0.2-0.4-0.4-0.9-0.6-1.3l0,0
				C1214.4,50.3,1214.3,50,1214.1,49.8C1214.1,49.8,1214.1,49.8,1214.1,49.8z"/>
			<g id="g4267">
				
					<linearGradient id="path3786_1_" gradientUnits="userSpaceOnUse" x1="330.1334" y1="717.2678" x2="339.6539" y2="717.2678" gradientTransform="matrix(0.5 0.866 0.866 -0.5 536.0151 52.9498)">
					<stop  offset="0" style="stop-color:#FFFFFF"/>
					<stop  offset="1" style="stop-color:#D0D0D0"/>
				</linearGradient>
				<path id="path3786" sodipodi:nodetypes="sccsccs" inkscape:connector-curvature="0" class="st32" d="M1327.8-20.7
					c-1.8-3.1-4-5.5-5.9-6.8l-7.6,4.4c1.9,1.3,4.1,3.7,5.8,6.8c1.8,3.1,2.8,6.1,2.9,8.4l7.7-4.5
					C1330.5-14.7,1329.5-17.7,1327.8-20.7z"/>
				<g id="g4255">
					<g id="g4092" transform="translate(3.34375,0)" class="st33">
						
							<rect id="rect4084" x="1318.8" y="-19.4" transform="matrix(-0.5 -0.866 0.866 -0.5 1995.3525 1114.1385)" class="st34" width="0.9" height="0.9"/>
						
							<rect id="rect4086" x="1320" y="-17.5" transform="matrix(-0.5 -0.866 0.866 -0.5 1995.3525 1117.5483)" class="st35" width="0.6" height="0.6"/>
						
							<linearGradient id="path4088_1_" gradientUnits="userSpaceOnUse" x1="1061.2483" y1="1255.7802" x2="1070.7688" y2="1255.7802" gradientTransform="matrix(0.2692 0.4663 0.4663 -0.2692 442.5766 -181.8918)">
							<stop  offset="0" style="stop-color:#FFFFFF"/>
							<stop  offset="1" style="stop-color:#D0D0D0"/>
						</linearGradient>
						
							<path id="path4088" sodipodi:ry="3" sodipodi:rx="3" sodipodi:cy="256.36218" sodipodi:cx="-169" sodipodi:type="arc" class="st36" d="
							M1318-17.9c-0.1,0.1-0.3,0-0.4-0.1c-0.1-0.1,0-0.3,0.1-0.4c0.1-0.1,0.3,0,0.4,0.1C1318.2-18.1,1318.2-18,1318-17.9z"/>
						
							<linearGradient id="path4090_1_" gradientUnits="userSpaceOnUse" x1="1042.6185" y1="1255.7802" x2="1052.139" y2="1255.7802" gradientTransform="matrix(0.2692 0.4663 0.4663 -0.2692 448.5766 -171.4995)">
							<stop  offset="0" style="stop-color:#FFFFFF"/>
							<stop  offset="1" style="stop-color:#D0D0D0"/>
						</linearGradient>
						
							<path id="path4090" sodipodi:ry="3" sodipodi:rx="3" sodipodi:cy="256.36218" sodipodi:cx="-169" sodipodi:type="arc" class="st37" d="
							M1319-16.2c-0.1,0.1-0.3,0-0.4-0.1c-0.1-0.1,0-0.3,0.1-0.4c0.1-0.1,0.3,0,0.4,0.1C1319.2-16.4,1319.2-16.3,1319-16.2z"/>
					</g>
					<g id="g4249">
						<g id="g4080" transform="translate(21.84375,0)" class="st33">
							
								<linearGradient id="rect4075_1_" gradientUnits="userSpaceOnUse" x1="290.0294" y1="722.6052" x2="299.5499" y2="722.6052" gradientTransform="matrix(0.5 0.866 0.866 -0.5 536.0151 90.7843)">
								<stop  offset="0" style="stop-color:#FFFFFF"/>
								<stop  offset="1" style="stop-color:#D0D0D0"/>
							</linearGradient>
							<path id="rect4075" sodipodi:nodetypes="ccccc" inkscape:connector-curvature="0" class="st38" d="M1306.1-23l0.2,0.3
								l-2.1,1.1l-0.1-0.1L1306.1-23z"/>
							
								<linearGradient id="path4078_1_" gradientUnits="userSpaceOnUse" x1="290.0294" y1="722.6052" x2="299.5499" y2="722.6052" gradientTransform="matrix(0.5 0.866 0.866 -0.5 536.0151 90.7843)">
								<stop  offset="0" style="stop-color:#FFFFFF"/>
								<stop  offset="1" style="stop-color:#D0D0D0"/>
							</linearGradient>
							<path id="path4078" sodipodi:nodetypes="ccccc" inkscape:connector-curvature="0" class="st39" d="M1307.7-20.2l0.2,0.3
								l-2.1,1.1l-0.1-0.1L1307.7-20.2z"/>
						</g>
						
							<linearGradient id="path4247_1_" gradientUnits="userSpaceOnUse" x1="330.1334" y1="722.0248" x2="339.6539" y2="722.0248" gradientTransform="matrix(0.5 0.866 0.866 -0.5 536.0151 52.9498)">
							<stop  offset="0" style="stop-color:#FFFFFF"/>
							<stop  offset="1" style="stop-color:#D0D0D0"/>
						</linearGradient>
						<path id="path4247" inkscape:connector-curvature="0" class="st40" d="M1326.9-21.3l0.9,1.5"/>
					</g>
				</g>
			</g>
			<g id="g4297" transform="matrix(-1,0,0,1,-507,-404)">
				<path id="path4299" inkscape:connector-curvature="0" class="st21" d="M-1821.4,386.8c-0.1,0.1,0,0.2,0,0.2l0.5,0.3l1.2-1.6
					l-0.5-0.3c-0.1,0-0.2,0-0.3,0.1L-1821.4,386.8z M-1820.7,387.4l0.7,0.4c0.1,0,0.2,0,0.3-0.1l1-1.3c0.1-0.1,0-0.2,0-0.2l-0.8-0.4
					L-1820.7,387.4z"/>
				<path id="rect4301" class="st22" d="M-1821.5,386.7l1-1.3c0-0.1,0.1-0.1,0.2,0l1.3,0.8c0.1,0,0.1,0.1,0,0.2l-1,1.3
					c0,0.1-0.1,0.1-0.2,0l-1.3-0.8C-1821.5,386.8-1821.5,386.7-1821.5,386.7z"/>
				<g id="g4303" transform="matrix(1,0.12187925,0,1,22.75,30.192094)">
					<path id="path4305" inkscape:connector-curvature="0" class="st23" d="M-1842.4,581.8c0.3-0.4,0.3-0.4,0.3-0.4"/>
					<path id="path4307" inkscape:connector-curvature="0" class="st23" d="M-1841.9,581.2c0.3-0.4,0.3-0.4,0.3-0.4"/>
				</g>
			</g>
			<g id="g4317" transform="matrix(1,0.16666667,0,0.83333341,0,87.977008)">
				
					<path id="path4311" sodipodi:ry="2.75" sodipodi:rx="2.75" sodipodi:cy="314.86218" sodipodi:cx="-280.25" sodipodi:type="arc" class="st41" d="
					M1317.1-379.4c-0.2,0.2-0.4,0.1-0.5-0.2c-0.1-0.3,0-0.7,0.2-0.8s0.4-0.1,0.5,0.2S1317.3-379.5,1317.1-379.4z"/>
				
					<path id="path4309" sodipodi:ry="2.75" sodipodi:rx="2.75" sodipodi:cy="314.86218" sodipodi:cx="-280.25" sodipodi:type="arc" class="st42" d="
					M1317.2-379.4c-0.2,0.2-0.4,0.1-0.5-0.2c-0.1-0.3,0-0.6,0.2-0.8c0.2-0.2,0.4-0.1,0.5,0.2S1317.3-379.6,1317.2-379.4z"/>
			</g>
			<g id="g4325">
				<path id="path4321" inkscape:connector-curvature="0" class="st43" d="M1318.8-6.5l-102.3,59.1"/>
				<path id="path4323" inkscape:connector-curvature="0" class="st44" d="M1318.8-6.5l-102.3,59.1"/>
			</g>
		</g>
	</g>
</g>
<g>
	<path class="st6" d="M339.4,118.2h-18.1v-127h-44.6v-15.8h107v15.8h-44.3V118.2z"/>
	<path class="st6" d="M461.4,118.2l-3.4-15.2h-0.8c-5.3,6.7-10.7,11.2-16,13.6c-5.3,2.4-12,3.6-20.1,3.6c-10.5,0-18.8-2.8-24.8-8.3
		c-6-5.5-9-13.3-9-23.4c0-21.7,17.2-33.1,51.5-34.2l18.2-0.7v-6.3c0-8.1-1.8-14.1-5.3-18c-3.5-3.9-9.1-5.8-16.9-5.8
		c-5.7,0-11,0.8-16.1,2.5c-5,1.7-9.8,3.6-14.2,5.7l-5.4-13.2c5.4-2.9,11.3-5.1,17.7-6.7c6.4-1.6,12.7-2.4,18.9-2.4
		c13,0,22.6,2.9,28.9,8.6c6.3,5.7,9.5,14.8,9.5,27.3v73H461.4z M425.1,106c9.8,0,17.6-2.7,23.2-8c5.6-5.3,8.4-12.8,8.4-22.6v-9.7
		L441,66.4c-12.3,0.5-21.3,2.4-26.9,5.9c-5.6,3.5-8.4,8.9-8.4,16.3c0,5.6,1.7,9.9,5.1,12.9C414.1,104.5,418.9,106,425.1,106z"/>
	<path class="st6" d="M524.7,63l6-7.6l6.8-8.2L571.8,11h20.5L549,56.8l46.4,61.4h-21.2l-37.2-50l-12.2,10.6v39.4h-17.4v-152h17.4
		v79.4L524,63H524.7z"/>
	<path class="st6" d="M657.9,120.1c-16.1,0-28.7-4.9-37.8-14.6c-9.1-9.7-13.7-23.1-13.7-40.2c0-17.2,4.3-30.9,12.8-41.1
		C627.6,14.1,639.1,9,653.7,9c13.5,0,24.2,4.3,32.2,13s12,20.5,12,35.3V68h-73.4c0.3,12.2,3.4,21.4,9.3,27.7
		c5.9,6.3,14.2,9.5,24.9,9.5c5.7,0,11.2-0.5,16.3-1.5c5.1-1,11.2-3,18.1-5.9v15.4c-5.9,2.5-11.5,4.3-16.7,5.4
		C671.1,119.6,664.9,120.1,657.9,120.1z M653.5,23.4c-8.4,0-15,2.7-19.9,8.1c-4.9,5.4-7.8,12.9-8.7,22.6h54.6
		c-0.1-10-2.4-17.6-6.9-22.9C668,26,661.7,23.4,653.5,23.4z"/>
	<path class="st6" d="M812.8,105.8c2.3,0,4.9-0.2,8-0.7c3.1-0.5,5.4-1,6.9-1.6V117c-1.6,0.7-4.2,1.4-7.6,2.1s-6.9,1-10.4,1
		c-21,0-31.4-11-31.4-33.1V24.6h-15.1v-8.4l15.3-7l7-22.9H796V11h31v13.7h-31v61.9c0,6.2,1.5,10.9,4.4,14.3S807.6,105.8,812.8,105.8
		z"/>
	<path class="st6" d="M922.2,118.2V49.6c0-8.7-1.9-15.2-5.8-19.5c-3.9-4.3-9.9-6.4-18.2-6.4c-10.9,0-18.8,3-23.9,9.1
		c-5,6.1-7.6,16-7.6,30v55.4h-17.6v-152h17.6v44.5c0,5.9-0.3,10.9-1,15h1.2c3.2-5.2,7.7-9.3,13.6-12.2s12.5-4.4,19.8-4.4
		c13,0,22.8,3.1,29.4,9.3c6.6,6.2,9.9,16.2,9.9,29.8v69.8H922.2z"/>
	<path class="st6" d="M1018.4,120.1c-16.1,0-28.7-4.9-37.8-14.6c-9.1-9.7-13.7-23.1-13.7-40.2c0-17.2,4.3-30.9,12.8-41.1
		C988.2,14.1,999.7,9,1014.2,9c13.5,0,24.2,4.3,32.2,13s12,20.5,12,35.3V68H985c0.3,12.2,3.4,21.4,9.3,27.7
		c5.9,6.3,14.2,9.5,24.9,9.5c5.7,0,11.2-0.5,16.3-1.5c5.1-1,11.2-3,18.1-5.9v15.4c-5.9,2.5-11.5,4.3-16.7,5.4
		C1031.6,119.6,1025.5,120.1,1018.4,120.1z M1014,23.4c-8.4,0-15,2.7-19.9,8.1c-4.9,5.4-7.8,12.9-8.7,22.6h54.6
		c-0.1-10-2.4-17.6-6.9-22.9C1028.6,26,1022.2,23.4,1014,23.4z"/>
	<path class="st6" d="M1173.4,105.8c2.3,0,4.9-0.2,8-0.7c3.1-0.5,5.4-1,6.9-1.6V117c-1.6,0.7-4.2,1.4-7.6,2.1s-6.9,1-10.4,1
		c-21,0-31.4-11-31.4-33.1V24.6h-15.1v-8.4l15.3-7l7-22.9h10.4V11h31v13.7h-31v61.9c0,6.2,1.5,10.9,4.4,14.3
		C1164,104.1,1168.1,105.8,1173.4,105.8z"/>
	<path class="st6" d="M1302.9,64.4c0,17.5-4.4,31.2-13.3,41c-8.9,9.8-21.1,14.7-36.7,14.7c-9.7,0-18.3-2.3-25.8-6.8
		c-7.5-4.5-13.2-11-17.3-19.5c-4-8.5-6.1-18.3-6.1-29.5c0-17.4,4.4-31,13.1-40.8c8.7-9.7,21-14.6,36.7-14.6c15.1,0,27.1,5,36,14.9
		C1298.4,33.8,1302.9,47.3,1302.9,64.4z M1221.9,64.4c0,13.5,2.7,23.7,8,30.7c5.3,7,13.1,10.5,23.5,10.5c10.2,0,18-3.5,23.3-10.5
		c5.3-7,8-17.2,8-30.7s-2.7-23.6-8.1-30.4c-5.4-6.8-13.2-10.2-23.6-10.2C1232.3,23.8,1221.9,37.3,1221.9,64.4z"/>
	<path class="st6" d="M1347.3,11v69c0,8.7,1.9,15.1,5.8,19.3c3.9,4.2,9.9,6.3,18,6.3c11,0,19-3.1,24-9.2c5-6.1,7.5-16,7.5-29.6V11
		h17.7v107.2h-14.5l-2.5-14.2h-0.9c-3.2,5.1-7.7,9.1-13.6,11.9s-12.7,4.2-20.4,4.2c-12.9,0-22.6-3.1-29.2-9.3
		c-6.5-6.2-9.8-16.1-9.8-29.7V11H1347.3z"/>
	<path class="st6" d="M1504.3,9c4.8,0,9,0.4,12.6,1.2l-2.1,16.2c-4-0.9-7.8-1.4-11.6-1.4c-5.7,0-10.9,1.6-15.8,4.7
		c-4.9,3.1-8.6,7.4-11.4,12.9c-2.7,5.5-4.1,11.6-4.1,18.3v57.2h-17.6V11h14.5l2,19.6h0.8c4.1-7.1,9-12.5,14.6-16.1
		C1491.7,10.8,1497.8,9,1504.3,9z"/>
	<path class="st6" d="M1549.2,107.3c0-2.5,0.3-4.6,1-6.3c0.7-1.7,1.5-3.1,2.6-4.2c1.1-1.1,2.4-1.9,3.9-2.3c1.5-0.5,3.1-0.7,4.9-0.7
		c1.7,0,3.3,0.2,4.8,0.7c1.5,0.5,2.8,1.3,4,2.3c1.1,1.1,2,2.5,2.6,4.2c0.7,1.7,1,3.8,1,6.3c0,2.4-0.3,4.5-1,6.2
		c-0.7,1.7-1.5,3.1-2.6,4.2c-1.1,1.1-2.4,1.9-4,2.4c-1.5,0.5-3.1,0.8-4.8,0.8c-1.8,0-3.4-0.3-4.9-0.8c-1.5-0.5-2.8-1.3-3.9-2.4
		c-1.1-1.1-2-2.5-2.6-4.2C1549.5,111.8,1549.2,109.8,1549.2,107.3z M1567.6,77.8h-11.8l-5-102.3h21.8L1567.6,77.8z"/>
</g>
</svg>
